G04 EAGLE Gerber RS-274X export*
G75*
%MOMM*%
%FSLAX34Y34*%
%LPD*%
%INSlot drills/holes*%
%IPPOS*%
%AMOC8*
5,1,8,0,0,1.08239X$1,22.5*%
G01*
%ADD10C,0.000000*%
%ADD11C,0.002541*%


D10*
X50800Y50800D02*
X660400Y50800D01*
D11*
X50800Y50800D02*
X43360Y50800D01*
X42312Y50813D01*
X41265Y50851D01*
X40219Y50914D01*
X39175Y51002D01*
X38134Y51116D01*
X37095Y51255D01*
X36060Y51419D01*
X35029Y51608D01*
X34004Y51822D01*
X32983Y52060D01*
X31969Y52323D01*
X30961Y52610D01*
X29961Y52922D01*
X28968Y53258D01*
X27984Y53618D01*
X27009Y54001D01*
X26044Y54408D01*
X25088Y54838D01*
X24143Y55291D01*
X23210Y55767D01*
X22288Y56265D01*
X21378Y56785D01*
X20482Y57327D01*
X19598Y57891D01*
X18729Y58475D01*
X17874Y59081D01*
X17033Y59707D01*
X16209Y60353D01*
X15400Y61019D01*
X14607Y61705D01*
X13831Y62409D01*
X13073Y63132D01*
X12332Y63873D01*
X11609Y64631D01*
X10905Y65407D01*
X10219Y66200D01*
X9553Y67009D01*
X8907Y67833D01*
X8281Y68674D01*
X7675Y69529D01*
X7091Y70398D01*
X6527Y71282D01*
X5985Y72178D01*
X5465Y73088D01*
X4967Y74010D01*
X4491Y74943D01*
X4038Y75888D01*
X3608Y76844D01*
X3201Y77809D01*
X2818Y78784D01*
X2458Y79768D01*
X2122Y80761D01*
X1810Y81761D01*
X1523Y82769D01*
X1260Y83783D01*
X1022Y84804D01*
X808Y85829D01*
X619Y86860D01*
X455Y87895D01*
X316Y88934D01*
X202Y89975D01*
X114Y91019D01*
X51Y92065D01*
X13Y93112D01*
X0Y94160D01*
X0Y317500D01*
X660400Y274140D02*
X660400Y50800D01*
X660400Y274140D02*
X660387Y275188D01*
X660349Y276235D01*
X660286Y277281D01*
X660198Y278325D01*
X660084Y279366D01*
X659945Y280405D01*
X659781Y281440D01*
X659592Y282471D01*
X659378Y283496D01*
X659140Y284517D01*
X658877Y285531D01*
X658590Y286539D01*
X658278Y287539D01*
X657942Y288532D01*
X657582Y289516D01*
X657199Y290491D01*
X656792Y291456D01*
X656362Y292412D01*
X655909Y293357D01*
X655433Y294290D01*
X654935Y295212D01*
X654415Y296122D01*
X653873Y297018D01*
X653309Y297902D01*
X652725Y298771D01*
X652119Y299626D01*
X651493Y300467D01*
X650847Y301291D01*
X650181Y302100D01*
X649495Y302893D01*
X648791Y303669D01*
X648068Y304427D01*
X647327Y305168D01*
X646569Y305891D01*
X645793Y306595D01*
X645000Y307281D01*
X644191Y307947D01*
X643367Y308593D01*
X642526Y309219D01*
X641671Y309825D01*
X640802Y310409D01*
X639918Y310973D01*
X639022Y311515D01*
X638112Y312035D01*
X637190Y312533D01*
X636257Y313009D01*
X635312Y313462D01*
X634356Y313892D01*
X633391Y314299D01*
X632416Y314682D01*
X631432Y315042D01*
X630439Y315378D01*
X629439Y315690D01*
X628431Y315977D01*
X627417Y316240D01*
X626396Y316478D01*
X625371Y316692D01*
X624340Y316881D01*
X623305Y317045D01*
X622266Y317184D01*
X621225Y317298D01*
X620181Y317386D01*
X619135Y317449D01*
X618088Y317487D01*
X617040Y317500D01*
X0Y317500D01*
M02*
