G04 EAGLE Gerber RS-274X export*
G75*
%MOMM*%
%FSLAX34Y34*%
%LPD*%
%INTop Layer*%
%IPPOS*%
%AMOC8*
5,1,8,0,0,1.08239X$1,22.5*%
G01*
%ADD10C,0.000000*%
%ADD11C,0.002541*%
%ADD12C,1.000000*%
%ADD13R,0.760000X1.800000*%
%ADD14R,1.800000X0.760000*%
%ADD15R,1.080000X1.050000*%
%ADD16R,1.050000X1.080000*%
%ADD17C,0.254000*%
%ADD18C,0.656400*%

G36*
X649076Y60976D02*
X649076Y60976D01*
X649194Y60983D01*
X649233Y60996D01*
X649273Y61001D01*
X649384Y61044D01*
X649497Y61081D01*
X649531Y61103D01*
X649569Y61118D01*
X649665Y61187D01*
X649765Y61251D01*
X649793Y61281D01*
X649826Y61304D01*
X649902Y61396D01*
X649983Y61483D01*
X650003Y61518D01*
X650029Y61549D01*
X650079Y61657D01*
X650137Y61761D01*
X650147Y61801D01*
X650164Y61837D01*
X650187Y61954D01*
X650216Y62069D01*
X650220Y62129D01*
X650224Y62149D01*
X650223Y62170D01*
X650227Y62230D01*
X650227Y274140D01*
X650224Y274159D01*
X650225Y274211D01*
X650024Y277784D01*
X650019Y277810D01*
X650020Y277837D01*
X649994Y277996D01*
X648404Y284964D01*
X648382Y285022D01*
X648370Y285083D01*
X648310Y285232D01*
X645209Y291672D01*
X645175Y291724D01*
X645150Y291780D01*
X645057Y291912D01*
X640601Y297500D01*
X640557Y297543D01*
X640519Y297593D01*
X640400Y297701D01*
X634812Y302157D01*
X634759Y302190D01*
X634712Y302230D01*
X634572Y302309D01*
X628132Y305410D01*
X628073Y305429D01*
X628018Y305458D01*
X627864Y305504D01*
X620896Y307094D01*
X620869Y307097D01*
X620844Y307105D01*
X620684Y307124D01*
X617111Y307325D01*
X617092Y307323D01*
X617040Y307327D01*
X11443Y307327D01*
X11324Y307312D01*
X11206Y307304D01*
X11167Y307292D01*
X11127Y307287D01*
X11016Y307243D01*
X10903Y307206D01*
X10869Y307185D01*
X10831Y307170D01*
X10735Y307100D01*
X10635Y307036D01*
X10607Y307007D01*
X10574Y306983D01*
X10498Y306891D01*
X10417Y306804D01*
X10397Y306769D01*
X10371Y306738D01*
X10321Y306630D01*
X10263Y306526D01*
X10253Y306487D01*
X10236Y306450D01*
X10213Y306333D01*
X10184Y306218D01*
X10180Y306158D01*
X10176Y306138D01*
X10177Y306117D01*
X10173Y306057D01*
X10173Y94160D01*
X10176Y94141D01*
X10175Y94089D01*
X10376Y90516D01*
X10381Y90490D01*
X10380Y90463D01*
X10406Y90304D01*
X11996Y83336D01*
X12018Y83278D01*
X12030Y83217D01*
X12090Y83068D01*
X15191Y76628D01*
X15225Y76576D01*
X15250Y76520D01*
X15343Y76388D01*
X19799Y70800D01*
X19843Y70757D01*
X19881Y70707D01*
X20000Y70599D01*
X25588Y66143D01*
X25641Y66110D01*
X25688Y66070D01*
X25828Y65991D01*
X32268Y62890D01*
X32327Y62871D01*
X32382Y62842D01*
X32536Y62796D01*
X39504Y61206D01*
X39531Y61203D01*
X39556Y61195D01*
X39716Y61176D01*
X43289Y60975D01*
X43308Y60977D01*
X43360Y60973D01*
X52928Y60973D01*
X52937Y60973D01*
X52946Y60971D01*
X53107Y60961D01*
X648957Y60961D01*
X649076Y60976D01*
G37*
%LPC*%
G36*
X518768Y94675D02*
X518768Y94675D01*
X517875Y95568D01*
X517875Y107632D01*
X518768Y108525D01*
X522986Y108525D01*
X523104Y108540D01*
X523223Y108547D01*
X523261Y108560D01*
X523302Y108565D01*
X523412Y108608D01*
X523525Y108645D01*
X523560Y108667D01*
X523597Y108682D01*
X523693Y108751D01*
X523794Y108815D01*
X523822Y108845D01*
X523855Y108868D01*
X523931Y108960D01*
X524012Y109047D01*
X524032Y109082D01*
X524057Y109113D01*
X524108Y109221D01*
X524166Y109325D01*
X524176Y109365D01*
X524193Y109401D01*
X524215Y109518D01*
X524245Y109633D01*
X524249Y109693D01*
X524253Y109713D01*
X524251Y109734D01*
X524255Y109794D01*
X524255Y118967D01*
X524243Y119065D01*
X524240Y119164D01*
X524223Y119222D01*
X524215Y119282D01*
X524179Y119374D01*
X524151Y119469D01*
X524121Y119522D01*
X524098Y119578D01*
X524040Y119658D01*
X523990Y119743D01*
X523924Y119819D01*
X523912Y119835D01*
X523902Y119843D01*
X523884Y119864D01*
X517826Y125922D01*
X517822Y125932D01*
X517785Y126045D01*
X517763Y126080D01*
X517748Y126117D01*
X517679Y126213D01*
X517615Y126314D01*
X517585Y126342D01*
X517562Y126375D01*
X517470Y126451D01*
X517383Y126532D01*
X517348Y126552D01*
X517317Y126577D01*
X517209Y126628D01*
X517105Y126686D01*
X517065Y126696D01*
X517029Y126713D01*
X516912Y126735D01*
X516797Y126765D01*
X516737Y126769D01*
X516717Y126773D01*
X516696Y126771D01*
X516636Y126775D01*
X516268Y126775D01*
X515247Y127796D01*
X515153Y127869D01*
X515064Y127948D01*
X515028Y127966D01*
X514996Y127991D01*
X514887Y128039D01*
X514781Y128093D01*
X514742Y128101D01*
X514704Y128117D01*
X514587Y128136D01*
X514471Y128162D01*
X514430Y128161D01*
X514390Y128167D01*
X514272Y128156D01*
X514153Y128153D01*
X514114Y128141D01*
X514074Y128138D01*
X513962Y128097D01*
X513847Y128064D01*
X513812Y128044D01*
X513774Y128030D01*
X513676Y127963D01*
X513573Y127903D01*
X513528Y127863D01*
X513511Y127851D01*
X513498Y127836D01*
X513452Y127796D01*
X512432Y126775D01*
X503568Y126775D01*
X502547Y127796D01*
X502453Y127869D01*
X502364Y127948D01*
X502328Y127966D01*
X502296Y127991D01*
X502187Y128039D01*
X502081Y128093D01*
X502042Y128101D01*
X502004Y128117D01*
X501887Y128136D01*
X501771Y128162D01*
X501730Y128161D01*
X501690Y128167D01*
X501572Y128156D01*
X501453Y128153D01*
X501414Y128141D01*
X501374Y128138D01*
X501262Y128097D01*
X501147Y128064D01*
X501112Y128044D01*
X501074Y128030D01*
X500976Y127963D01*
X500873Y127903D01*
X500828Y127863D01*
X500811Y127851D01*
X500798Y127836D01*
X500752Y127796D01*
X499732Y126775D01*
X499364Y126775D01*
X499246Y126760D01*
X499127Y126753D01*
X499089Y126740D01*
X499048Y126735D01*
X498938Y126692D01*
X498825Y126655D01*
X498790Y126633D01*
X498753Y126618D01*
X498657Y126549D01*
X498556Y126485D01*
X498528Y126455D01*
X498495Y126432D01*
X498419Y126340D01*
X498338Y126253D01*
X498318Y126218D01*
X498293Y126187D01*
X498242Y126079D01*
X498184Y125975D01*
X498174Y125935D01*
X498157Y125899D01*
X498135Y125782D01*
X498105Y125667D01*
X498101Y125607D01*
X498097Y125587D01*
X498099Y125566D01*
X498095Y125506D01*
X498095Y121053D01*
X498098Y121024D01*
X498096Y120994D01*
X498118Y120866D01*
X498135Y120737D01*
X498145Y120710D01*
X498150Y120681D01*
X498204Y120562D01*
X498252Y120442D01*
X498269Y120418D01*
X498281Y120391D01*
X498362Y120289D01*
X498438Y120184D01*
X498461Y120165D01*
X498480Y120142D01*
X498583Y120064D01*
X498683Y119981D01*
X498710Y119969D01*
X498734Y119951D01*
X498878Y119880D01*
X498996Y119831D01*
X500831Y117996D01*
X501825Y115598D01*
X501825Y113002D01*
X500831Y110604D01*
X498996Y108769D01*
X496598Y107775D01*
X494002Y107775D01*
X491604Y108769D01*
X489769Y110604D01*
X488775Y113002D01*
X488775Y115598D01*
X489769Y117996D01*
X491604Y119831D01*
X491722Y119880D01*
X491747Y119895D01*
X491775Y119904D01*
X491885Y119973D01*
X491998Y120038D01*
X492019Y120058D01*
X492044Y120074D01*
X492133Y120169D01*
X492226Y120259D01*
X492242Y120284D01*
X492262Y120306D01*
X492325Y120419D01*
X492393Y120530D01*
X492401Y120558D01*
X492416Y120584D01*
X492448Y120710D01*
X492486Y120834D01*
X492488Y120864D01*
X492495Y120892D01*
X492505Y121053D01*
X492505Y125506D01*
X492490Y125624D01*
X492483Y125743D01*
X492470Y125781D01*
X492465Y125822D01*
X492422Y125932D01*
X492385Y126045D01*
X492363Y126080D01*
X492348Y126117D01*
X492279Y126213D01*
X492215Y126314D01*
X492185Y126342D01*
X492162Y126375D01*
X492070Y126451D01*
X491983Y126532D01*
X491948Y126552D01*
X491917Y126577D01*
X491809Y126628D01*
X491705Y126686D01*
X491665Y126696D01*
X491629Y126713D01*
X491512Y126735D01*
X491397Y126765D01*
X491337Y126769D01*
X491317Y126773D01*
X491296Y126771D01*
X491236Y126775D01*
X490868Y126775D01*
X489847Y127796D01*
X489753Y127869D01*
X489664Y127948D01*
X489628Y127966D01*
X489596Y127991D01*
X489487Y128039D01*
X489381Y128093D01*
X489342Y128101D01*
X489304Y128117D01*
X489187Y128136D01*
X489071Y128162D01*
X489030Y128161D01*
X488990Y128167D01*
X488872Y128156D01*
X488753Y128153D01*
X488714Y128141D01*
X488674Y128138D01*
X488562Y128097D01*
X488447Y128064D01*
X488412Y128044D01*
X488374Y128030D01*
X488276Y127963D01*
X488173Y127903D01*
X488128Y127863D01*
X488111Y127851D01*
X488098Y127836D01*
X488052Y127796D01*
X487032Y126775D01*
X486664Y126775D01*
X486546Y126760D01*
X486427Y126753D01*
X486389Y126740D01*
X486348Y126735D01*
X486238Y126692D01*
X486125Y126655D01*
X486090Y126633D01*
X486053Y126618D01*
X485957Y126549D01*
X485856Y126485D01*
X485828Y126455D01*
X485795Y126432D01*
X485719Y126340D01*
X485638Y126253D01*
X485618Y126218D01*
X485593Y126187D01*
X485542Y126079D01*
X485484Y125975D01*
X485474Y125935D01*
X485457Y125899D01*
X485435Y125782D01*
X485405Y125667D01*
X485401Y125607D01*
X485397Y125587D01*
X485399Y125566D01*
X485395Y125506D01*
X485395Y113142D01*
X471058Y98805D01*
X463953Y98805D01*
X463924Y98802D01*
X463894Y98804D01*
X463766Y98782D01*
X463637Y98765D01*
X463610Y98755D01*
X463581Y98750D01*
X463462Y98696D01*
X463342Y98648D01*
X463318Y98631D01*
X463291Y98619D01*
X463189Y98538D01*
X463084Y98462D01*
X463065Y98439D01*
X463042Y98420D01*
X462964Y98317D01*
X462881Y98217D01*
X462869Y98190D01*
X462851Y98166D01*
X462780Y98022D01*
X462731Y97904D01*
X460896Y96069D01*
X458498Y95075D01*
X455902Y95075D01*
X453504Y96069D01*
X451669Y97904D01*
X450675Y100302D01*
X450675Y102898D01*
X451669Y105296D01*
X453504Y107131D01*
X455902Y108125D01*
X458498Y108125D01*
X460896Y107131D01*
X462731Y105296D01*
X462780Y105178D01*
X462795Y105153D01*
X462804Y105125D01*
X462873Y105015D01*
X462938Y104902D01*
X462958Y104881D01*
X462974Y104856D01*
X463069Y104767D01*
X463159Y104674D01*
X463184Y104658D01*
X463206Y104638D01*
X463319Y104575D01*
X463430Y104507D01*
X463458Y104499D01*
X463484Y104484D01*
X463610Y104452D01*
X463734Y104414D01*
X463764Y104412D01*
X463792Y104405D01*
X463953Y104395D01*
X468217Y104395D01*
X468315Y104407D01*
X468414Y104410D01*
X468472Y104427D01*
X468532Y104435D01*
X468624Y104471D01*
X468719Y104499D01*
X468772Y104529D01*
X468828Y104552D01*
X468908Y104610D01*
X468993Y104660D01*
X469069Y104726D01*
X469085Y104738D01*
X469093Y104748D01*
X469114Y104766D01*
X479434Y115086D01*
X479494Y115164D01*
X479562Y115236D01*
X479591Y115289D01*
X479628Y115337D01*
X479668Y115428D01*
X479716Y115515D01*
X479731Y115573D01*
X479755Y115629D01*
X479770Y115727D01*
X479795Y115823D01*
X479801Y115923D01*
X479805Y115943D01*
X479803Y115955D01*
X479805Y115983D01*
X479805Y125506D01*
X479790Y125624D01*
X479783Y125743D01*
X479770Y125781D01*
X479765Y125822D01*
X479722Y125932D01*
X479685Y126045D01*
X479663Y126080D01*
X479648Y126117D01*
X479579Y126213D01*
X479515Y126314D01*
X479485Y126342D01*
X479462Y126375D01*
X479370Y126451D01*
X479283Y126532D01*
X479248Y126552D01*
X479217Y126577D01*
X479109Y126628D01*
X479005Y126686D01*
X478965Y126696D01*
X478929Y126713D01*
X478812Y126735D01*
X478697Y126765D01*
X478637Y126769D01*
X478617Y126773D01*
X478596Y126771D01*
X478536Y126775D01*
X478168Y126775D01*
X477147Y127796D01*
X477053Y127869D01*
X476964Y127948D01*
X476928Y127966D01*
X476896Y127991D01*
X476787Y128039D01*
X476681Y128093D01*
X476642Y128101D01*
X476604Y128117D01*
X476487Y128136D01*
X476371Y128162D01*
X476330Y128161D01*
X476290Y128167D01*
X476172Y128156D01*
X476053Y128153D01*
X476014Y128141D01*
X475974Y128138D01*
X475862Y128097D01*
X475747Y128064D01*
X475712Y128044D01*
X475674Y128030D01*
X475576Y127963D01*
X475473Y127903D01*
X475428Y127863D01*
X475411Y127851D01*
X475398Y127836D01*
X475352Y127796D01*
X474332Y126775D01*
X465468Y126775D01*
X464575Y127668D01*
X464575Y145806D01*
X464560Y145924D01*
X464553Y146043D01*
X464540Y146081D01*
X464535Y146122D01*
X464492Y146232D01*
X464455Y146345D01*
X464433Y146380D01*
X464418Y146417D01*
X464349Y146513D01*
X464285Y146614D01*
X464255Y146642D01*
X464232Y146675D01*
X464140Y146751D01*
X464053Y146832D01*
X464018Y146852D01*
X463987Y146877D01*
X463879Y146928D01*
X463775Y146986D01*
X463735Y146996D01*
X463699Y147013D01*
X463582Y147035D01*
X463467Y147065D01*
X463407Y147069D01*
X463387Y147073D01*
X463366Y147071D01*
X463306Y147075D01*
X445168Y147075D01*
X444275Y147968D01*
X444275Y148336D01*
X444260Y148454D01*
X444253Y148573D01*
X444240Y148611D01*
X444235Y148652D01*
X444192Y148762D01*
X444155Y148875D01*
X444133Y148910D01*
X444118Y148947D01*
X444049Y149043D01*
X443985Y149144D01*
X443955Y149172D01*
X443932Y149205D01*
X443840Y149281D01*
X443753Y149362D01*
X443718Y149382D01*
X443687Y149407D01*
X443579Y149458D01*
X443475Y149516D01*
X443435Y149526D01*
X443399Y149543D01*
X443282Y149565D01*
X443167Y149595D01*
X443107Y149599D01*
X443087Y149603D01*
X443066Y149601D01*
X443006Y149605D01*
X437433Y149605D01*
X437335Y149593D01*
X437236Y149590D01*
X437178Y149573D01*
X437118Y149565D01*
X437026Y149529D01*
X436931Y149501D01*
X436878Y149471D01*
X436822Y149448D01*
X436742Y149390D01*
X436657Y149340D01*
X436581Y149274D01*
X436565Y149262D01*
X436557Y149252D01*
X436536Y149234D01*
X426396Y139094D01*
X426336Y139016D01*
X426268Y138944D01*
X426239Y138891D01*
X426202Y138843D01*
X426162Y138752D01*
X426114Y138665D01*
X426099Y138607D01*
X426075Y138551D01*
X426060Y138453D01*
X426035Y138357D01*
X426029Y138257D01*
X426025Y138237D01*
X426027Y138225D01*
X426025Y138197D01*
X426025Y129868D01*
X425132Y128975D01*
X413068Y128975D01*
X412175Y129868D01*
X412175Y141632D01*
X413068Y142525D01*
X421397Y142525D01*
X421495Y142537D01*
X421594Y142540D01*
X421652Y142557D01*
X421712Y142565D01*
X421804Y142601D01*
X421899Y142629D01*
X421952Y142659D01*
X422008Y142682D01*
X422088Y142740D01*
X422173Y142790D01*
X422249Y142856D01*
X422265Y142868D01*
X422273Y142878D01*
X422294Y142896D01*
X432584Y153186D01*
X434592Y155195D01*
X443006Y155195D01*
X443124Y155210D01*
X443243Y155217D01*
X443281Y155230D01*
X443322Y155235D01*
X443432Y155278D01*
X443545Y155315D01*
X443580Y155337D01*
X443617Y155352D01*
X443713Y155421D01*
X443814Y155485D01*
X443842Y155515D01*
X443875Y155538D01*
X443951Y155630D01*
X444032Y155717D01*
X444052Y155752D01*
X444077Y155783D01*
X444128Y155891D01*
X444186Y155995D01*
X444196Y156035D01*
X444213Y156071D01*
X444235Y156188D01*
X444265Y156303D01*
X444269Y156363D01*
X444273Y156383D01*
X444271Y156404D01*
X444275Y156464D01*
X444275Y156832D01*
X445296Y157852D01*
X445369Y157947D01*
X445448Y158036D01*
X445466Y158072D01*
X445491Y158104D01*
X445538Y158213D01*
X445593Y158319D01*
X445601Y158358D01*
X445617Y158396D01*
X445636Y158513D01*
X445662Y158629D01*
X445661Y158670D01*
X445667Y158710D01*
X445656Y158828D01*
X445653Y158947D01*
X445641Y158986D01*
X445638Y159026D01*
X445597Y159139D01*
X445564Y159253D01*
X445544Y159287D01*
X445530Y159326D01*
X445463Y159424D01*
X445403Y159527D01*
X445363Y159572D01*
X445351Y159589D01*
X445336Y159602D01*
X445296Y159647D01*
X444275Y160668D01*
X444275Y161036D01*
X444260Y161154D01*
X444253Y161273D01*
X444240Y161311D01*
X444235Y161352D01*
X444192Y161462D01*
X444155Y161575D01*
X444133Y161610D01*
X444118Y161647D01*
X444049Y161743D01*
X443985Y161844D01*
X443955Y161872D01*
X443932Y161905D01*
X443840Y161981D01*
X443753Y162062D01*
X443718Y162082D01*
X443687Y162107D01*
X443579Y162158D01*
X443475Y162216D01*
X443435Y162226D01*
X443399Y162243D01*
X443282Y162265D01*
X443167Y162295D01*
X443107Y162299D01*
X443087Y162303D01*
X443066Y162301D01*
X443006Y162305D01*
X423194Y162305D01*
X423076Y162290D01*
X422957Y162283D01*
X422919Y162270D01*
X422878Y162265D01*
X422768Y162222D01*
X422655Y162185D01*
X422620Y162163D01*
X422583Y162148D01*
X422487Y162079D01*
X422386Y162015D01*
X422358Y161985D01*
X422325Y161962D01*
X422249Y161870D01*
X422168Y161783D01*
X422148Y161748D01*
X422123Y161717D01*
X422072Y161609D01*
X422014Y161505D01*
X422004Y161465D01*
X421987Y161429D01*
X421965Y161312D01*
X421935Y161197D01*
X421931Y161137D01*
X421927Y161117D01*
X421929Y161096D01*
X421925Y161036D01*
X421925Y159068D01*
X421032Y158175D01*
X409268Y158175D01*
X408375Y159068D01*
X408375Y171132D01*
X409268Y172025D01*
X421032Y172025D01*
X421925Y171132D01*
X421925Y169164D01*
X421940Y169046D01*
X421947Y168927D01*
X421960Y168889D01*
X421965Y168848D01*
X422008Y168738D01*
X422045Y168625D01*
X422067Y168590D01*
X422082Y168553D01*
X422151Y168457D01*
X422215Y168356D01*
X422245Y168328D01*
X422268Y168295D01*
X422360Y168219D01*
X422447Y168138D01*
X422482Y168118D01*
X422513Y168093D01*
X422621Y168042D01*
X422725Y167984D01*
X422765Y167974D01*
X422801Y167957D01*
X422918Y167935D01*
X423033Y167905D01*
X423093Y167901D01*
X423113Y167897D01*
X423134Y167899D01*
X423194Y167895D01*
X443006Y167895D01*
X443124Y167910D01*
X443243Y167917D01*
X443281Y167930D01*
X443322Y167935D01*
X443432Y167978D01*
X443545Y168015D01*
X443580Y168037D01*
X443617Y168052D01*
X443713Y168121D01*
X443814Y168185D01*
X443842Y168215D01*
X443875Y168238D01*
X443951Y168330D01*
X444032Y168417D01*
X444052Y168452D01*
X444077Y168483D01*
X444128Y168591D01*
X444186Y168695D01*
X444196Y168735D01*
X444213Y168771D01*
X444235Y168888D01*
X444265Y169003D01*
X444269Y169063D01*
X444273Y169083D01*
X444271Y169104D01*
X444275Y169164D01*
X444275Y169532D01*
X445296Y170552D01*
X445369Y170647D01*
X445448Y170736D01*
X445466Y170772D01*
X445491Y170804D01*
X445538Y170913D01*
X445593Y171019D01*
X445601Y171058D01*
X445617Y171096D01*
X445636Y171213D01*
X445662Y171329D01*
X445661Y171370D01*
X445667Y171410D01*
X445656Y171528D01*
X445653Y171647D01*
X445641Y171686D01*
X445638Y171726D01*
X445597Y171839D01*
X445564Y171953D01*
X445544Y171987D01*
X445530Y172026D01*
X445463Y172124D01*
X445403Y172227D01*
X445363Y172272D01*
X445351Y172289D01*
X445336Y172302D01*
X445296Y172347D01*
X444275Y173368D01*
X444275Y173736D01*
X444260Y173854D01*
X444253Y173973D01*
X444240Y174011D01*
X444235Y174052D01*
X444192Y174162D01*
X444155Y174275D01*
X444133Y174310D01*
X444118Y174347D01*
X444049Y174443D01*
X443985Y174544D01*
X443955Y174572D01*
X443932Y174605D01*
X443840Y174681D01*
X443753Y174762D01*
X443718Y174782D01*
X443687Y174807D01*
X443579Y174858D01*
X443475Y174916D01*
X443435Y174926D01*
X443399Y174943D01*
X443282Y174965D01*
X443167Y174995D01*
X443107Y174999D01*
X443087Y175003D01*
X443066Y175001D01*
X443006Y175005D01*
X417942Y175005D01*
X409199Y183749D01*
X409176Y183767D01*
X409156Y183789D01*
X409050Y183864D01*
X408948Y183944D01*
X408920Y183956D01*
X408896Y183973D01*
X408775Y184019D01*
X408656Y184070D01*
X408627Y184075D01*
X408599Y184085D01*
X408470Y184100D01*
X408342Y184120D01*
X408312Y184117D01*
X408283Y184121D01*
X408154Y184102D01*
X408025Y184090D01*
X407997Y184080D01*
X407968Y184076D01*
X407816Y184024D01*
X407698Y183975D01*
X405102Y183975D01*
X402704Y184969D01*
X400869Y186804D01*
X399875Y189202D01*
X399875Y191798D01*
X400869Y194196D01*
X402704Y196031D01*
X405102Y197025D01*
X407698Y197025D01*
X410096Y196031D01*
X411931Y194196D01*
X412925Y191798D01*
X412925Y189202D01*
X412876Y189084D01*
X412868Y189056D01*
X412855Y189030D01*
X412826Y188903D01*
X412792Y188778D01*
X412792Y188748D01*
X412785Y188719D01*
X412789Y188590D01*
X412787Y188460D01*
X412794Y188431D01*
X412795Y188401D01*
X412831Y188277D01*
X412861Y188150D01*
X412875Y188124D01*
X412883Y188096D01*
X412949Y187984D01*
X413010Y187869D01*
X413030Y187847D01*
X413045Y187822D01*
X413151Y187701D01*
X419886Y180966D01*
X419964Y180906D01*
X420036Y180838D01*
X420089Y180809D01*
X420137Y180772D01*
X420228Y180732D01*
X420315Y180684D01*
X420373Y180669D01*
X420429Y180645D01*
X420527Y180630D01*
X420623Y180605D01*
X420723Y180599D01*
X420743Y180595D01*
X420755Y180597D01*
X420783Y180595D01*
X443006Y180595D01*
X443124Y180610D01*
X443243Y180617D01*
X443281Y180630D01*
X443322Y180635D01*
X443432Y180678D01*
X443545Y180715D01*
X443580Y180737D01*
X443617Y180752D01*
X443713Y180821D01*
X443814Y180885D01*
X443842Y180915D01*
X443875Y180938D01*
X443951Y181030D01*
X444032Y181117D01*
X444052Y181152D01*
X444077Y181183D01*
X444128Y181291D01*
X444186Y181395D01*
X444196Y181435D01*
X444213Y181471D01*
X444235Y181588D01*
X444265Y181703D01*
X444269Y181763D01*
X444273Y181783D01*
X444271Y181804D01*
X444275Y181864D01*
X444275Y182232D01*
X445296Y183252D01*
X445369Y183347D01*
X445448Y183436D01*
X445466Y183472D01*
X445491Y183504D01*
X445538Y183613D01*
X445593Y183719D01*
X445601Y183758D01*
X445617Y183796D01*
X445636Y183913D01*
X445662Y184029D01*
X445661Y184070D01*
X445667Y184110D01*
X445656Y184228D01*
X445653Y184347D01*
X445641Y184386D01*
X445638Y184426D01*
X445597Y184539D01*
X445564Y184653D01*
X445544Y184687D01*
X445530Y184726D01*
X445463Y184824D01*
X445403Y184927D01*
X445363Y184972D01*
X445351Y184989D01*
X445336Y185002D01*
X445296Y185047D01*
X444275Y186068D01*
X444275Y186436D01*
X444260Y186554D01*
X444253Y186673D01*
X444240Y186711D01*
X444235Y186752D01*
X444192Y186862D01*
X444155Y186975D01*
X444133Y187010D01*
X444118Y187047D01*
X444049Y187143D01*
X443985Y187244D01*
X443955Y187272D01*
X443932Y187305D01*
X443840Y187381D01*
X443753Y187462D01*
X443718Y187482D01*
X443687Y187507D01*
X443579Y187558D01*
X443475Y187616D01*
X443435Y187626D01*
X443399Y187643D01*
X443282Y187665D01*
X443167Y187695D01*
X443107Y187699D01*
X443087Y187703D01*
X443066Y187701D01*
X443006Y187705D01*
X434592Y187705D01*
X432584Y189714D01*
X422294Y200004D01*
X422216Y200064D01*
X422144Y200132D01*
X422091Y200161D01*
X422043Y200198D01*
X421952Y200238D01*
X421865Y200286D01*
X421807Y200301D01*
X421751Y200325D01*
X421653Y200340D01*
X421557Y200365D01*
X421457Y200371D01*
X421437Y200375D01*
X421425Y200373D01*
X421397Y200375D01*
X413068Y200375D01*
X412175Y201268D01*
X412175Y213032D01*
X413068Y213925D01*
X425132Y213925D01*
X426025Y213032D01*
X426025Y204703D01*
X426037Y204605D01*
X426040Y204506D01*
X426057Y204448D01*
X426065Y204388D01*
X426101Y204296D01*
X426129Y204201D01*
X426159Y204148D01*
X426182Y204092D01*
X426240Y204012D01*
X426290Y203927D01*
X426356Y203851D01*
X426368Y203835D01*
X426378Y203827D01*
X426396Y203806D01*
X436536Y193666D01*
X436614Y193606D01*
X436686Y193538D01*
X436739Y193509D01*
X436787Y193472D01*
X436878Y193432D01*
X436965Y193384D01*
X437023Y193369D01*
X437079Y193345D01*
X437177Y193330D01*
X437273Y193305D01*
X437373Y193299D01*
X437393Y193295D01*
X437405Y193297D01*
X437433Y193295D01*
X443006Y193295D01*
X443124Y193310D01*
X443243Y193317D01*
X443281Y193330D01*
X443322Y193335D01*
X443432Y193378D01*
X443545Y193415D01*
X443580Y193437D01*
X443617Y193452D01*
X443713Y193521D01*
X443814Y193585D01*
X443842Y193615D01*
X443875Y193638D01*
X443951Y193730D01*
X444032Y193817D01*
X444052Y193852D01*
X444077Y193883D01*
X444128Y193991D01*
X444186Y194095D01*
X444196Y194135D01*
X444213Y194171D01*
X444235Y194288D01*
X444265Y194403D01*
X444269Y194463D01*
X444273Y194483D01*
X444271Y194504D01*
X444275Y194564D01*
X444275Y194932D01*
X445296Y195952D01*
X445369Y196047D01*
X445448Y196136D01*
X445466Y196172D01*
X445491Y196204D01*
X445538Y196313D01*
X445593Y196419D01*
X445601Y196458D01*
X445617Y196496D01*
X445636Y196613D01*
X445662Y196729D01*
X445661Y196770D01*
X445667Y196810D01*
X445656Y196928D01*
X445653Y197047D01*
X445641Y197086D01*
X445638Y197126D01*
X445597Y197239D01*
X445564Y197353D01*
X445544Y197387D01*
X445530Y197426D01*
X445463Y197524D01*
X445403Y197627D01*
X445363Y197672D01*
X445351Y197689D01*
X445336Y197702D01*
X445296Y197747D01*
X444275Y198768D01*
X444275Y207632D01*
X445168Y208525D01*
X463306Y208525D01*
X463424Y208540D01*
X463543Y208547D01*
X463581Y208560D01*
X463622Y208565D01*
X463732Y208608D01*
X463845Y208645D01*
X463880Y208667D01*
X463917Y208682D01*
X464013Y208751D01*
X464114Y208815D01*
X464142Y208845D01*
X464175Y208868D01*
X464251Y208960D01*
X464332Y209047D01*
X464352Y209082D01*
X464377Y209113D01*
X464428Y209221D01*
X464486Y209325D01*
X464496Y209365D01*
X464513Y209401D01*
X464535Y209518D01*
X464565Y209633D01*
X464569Y209693D01*
X464573Y209713D01*
X464571Y209734D01*
X464575Y209794D01*
X464575Y227932D01*
X465468Y228825D01*
X465836Y228825D01*
X465954Y228840D01*
X466073Y228847D01*
X466111Y228860D01*
X466152Y228865D01*
X466262Y228908D01*
X466375Y228945D01*
X466410Y228967D01*
X466447Y228982D01*
X466543Y229051D01*
X466644Y229115D01*
X466672Y229145D01*
X466705Y229168D01*
X466781Y229260D01*
X466862Y229347D01*
X466882Y229382D01*
X466907Y229413D01*
X466958Y229521D01*
X467016Y229625D01*
X467026Y229665D01*
X467043Y229701D01*
X467065Y229818D01*
X467095Y229933D01*
X467099Y229993D01*
X467103Y230013D01*
X467101Y230034D01*
X467105Y230094D01*
X467105Y277717D01*
X467093Y277815D01*
X467090Y277914D01*
X467073Y277972D01*
X467065Y278032D01*
X467029Y278124D01*
X467001Y278219D01*
X466971Y278272D01*
X466948Y278328D01*
X466890Y278408D01*
X466840Y278493D01*
X466774Y278569D01*
X466762Y278585D01*
X466752Y278593D01*
X466734Y278614D01*
X459999Y285349D01*
X459975Y285367D01*
X459956Y285389D01*
X459850Y285464D01*
X459747Y285544D01*
X459720Y285556D01*
X459696Y285573D01*
X459575Y285618D01*
X459456Y285670D01*
X459426Y285675D01*
X459399Y285685D01*
X459270Y285700D01*
X459142Y285720D01*
X459112Y285717D01*
X459083Y285721D01*
X458954Y285702D01*
X458825Y285690D01*
X458797Y285680D01*
X458768Y285676D01*
X458616Y285624D01*
X458498Y285575D01*
X455902Y285575D01*
X453504Y286569D01*
X451669Y288404D01*
X450675Y290802D01*
X450675Y293398D01*
X451669Y295796D01*
X453504Y297631D01*
X455902Y298625D01*
X458498Y298625D01*
X460896Y297631D01*
X462731Y295796D01*
X463725Y293398D01*
X463725Y290802D01*
X463676Y290684D01*
X463668Y290656D01*
X463655Y290630D01*
X463626Y290503D01*
X463592Y290378D01*
X463592Y290348D01*
X463585Y290319D01*
X463589Y290190D01*
X463587Y290060D01*
X463594Y290031D01*
X463595Y290002D01*
X463631Y289877D01*
X463661Y289750D01*
X463675Y289724D01*
X463683Y289696D01*
X463749Y289584D01*
X463810Y289469D01*
X463830Y289448D01*
X463845Y289422D01*
X463951Y289301D01*
X472695Y280558D01*
X472695Y230094D01*
X472710Y229976D01*
X472717Y229857D01*
X472730Y229819D01*
X472735Y229778D01*
X472778Y229668D01*
X472815Y229555D01*
X472837Y229520D01*
X472852Y229483D01*
X472921Y229387D01*
X472985Y229286D01*
X473015Y229258D01*
X473038Y229225D01*
X473130Y229149D01*
X473217Y229068D01*
X473252Y229048D01*
X473283Y229023D01*
X473391Y228972D01*
X473495Y228914D01*
X473535Y228904D01*
X473571Y228887D01*
X473688Y228865D01*
X473803Y228835D01*
X473863Y228831D01*
X473883Y228827D01*
X473904Y228829D01*
X473964Y228825D01*
X474332Y228825D01*
X475352Y227804D01*
X475447Y227731D01*
X475536Y227652D01*
X475572Y227634D01*
X475604Y227609D01*
X475713Y227562D01*
X475819Y227507D01*
X475858Y227499D01*
X475896Y227483D01*
X476013Y227464D01*
X476129Y227438D01*
X476170Y227439D01*
X476210Y227433D01*
X476328Y227444D01*
X476447Y227447D01*
X476486Y227459D01*
X476526Y227462D01*
X476639Y227503D01*
X476753Y227536D01*
X476787Y227556D01*
X476826Y227570D01*
X476924Y227637D01*
X477027Y227697D01*
X477072Y227737D01*
X477089Y227749D01*
X477102Y227764D01*
X477147Y227804D01*
X478168Y228825D01*
X478536Y228825D01*
X478654Y228840D01*
X478773Y228847D01*
X478811Y228860D01*
X478852Y228865D01*
X478962Y228908D01*
X479075Y228945D01*
X479110Y228967D01*
X479147Y228982D01*
X479243Y229051D01*
X479344Y229115D01*
X479372Y229145D01*
X479405Y229168D01*
X479481Y229260D01*
X479562Y229347D01*
X479582Y229382D01*
X479607Y229413D01*
X479658Y229521D01*
X479716Y229625D01*
X479726Y229665D01*
X479743Y229701D01*
X479765Y229818D01*
X479795Y229933D01*
X479799Y229993D01*
X479803Y230013D01*
X479801Y230034D01*
X479805Y230094D01*
X479805Y234547D01*
X479802Y234576D01*
X479804Y234606D01*
X479782Y234734D01*
X479765Y234863D01*
X479755Y234890D01*
X479750Y234919D01*
X479696Y235038D01*
X479648Y235158D01*
X479631Y235182D01*
X479619Y235209D01*
X479538Y235311D01*
X479462Y235416D01*
X479439Y235435D01*
X479420Y235458D01*
X479317Y235536D01*
X479217Y235619D01*
X479190Y235631D01*
X479166Y235649D01*
X479022Y235720D01*
X478904Y235769D01*
X477069Y237604D01*
X476075Y240002D01*
X476075Y242598D01*
X477069Y244996D01*
X478904Y246831D01*
X481302Y247825D01*
X483898Y247825D01*
X486296Y246831D01*
X488131Y244996D01*
X489125Y242598D01*
X489125Y240002D01*
X488131Y237604D01*
X486296Y235769D01*
X486178Y235720D01*
X486153Y235705D01*
X486125Y235696D01*
X486015Y235627D01*
X485902Y235562D01*
X485881Y235542D01*
X485856Y235526D01*
X485767Y235431D01*
X485674Y235341D01*
X485658Y235316D01*
X485638Y235294D01*
X485575Y235181D01*
X485507Y235070D01*
X485499Y235042D01*
X485484Y235016D01*
X485452Y234890D01*
X485414Y234766D01*
X485412Y234736D01*
X485405Y234708D01*
X485395Y234547D01*
X485395Y230094D01*
X485410Y229976D01*
X485417Y229857D01*
X485430Y229819D01*
X485435Y229778D01*
X485478Y229668D01*
X485515Y229555D01*
X485537Y229520D01*
X485552Y229483D01*
X485621Y229387D01*
X485685Y229286D01*
X485715Y229258D01*
X485738Y229225D01*
X485830Y229149D01*
X485917Y229068D01*
X485952Y229048D01*
X485983Y229023D01*
X486091Y228972D01*
X486195Y228914D01*
X486235Y228904D01*
X486271Y228887D01*
X486388Y228865D01*
X486503Y228835D01*
X486563Y228831D01*
X486583Y228827D01*
X486604Y228829D01*
X486664Y228825D01*
X487032Y228825D01*
X488052Y227804D01*
X488147Y227731D01*
X488236Y227652D01*
X488272Y227634D01*
X488304Y227609D01*
X488413Y227562D01*
X488519Y227507D01*
X488558Y227499D01*
X488596Y227483D01*
X488713Y227464D01*
X488829Y227438D01*
X488870Y227439D01*
X488910Y227433D01*
X489028Y227444D01*
X489147Y227447D01*
X489186Y227459D01*
X489226Y227462D01*
X489339Y227503D01*
X489453Y227536D01*
X489487Y227556D01*
X489526Y227570D01*
X489624Y227637D01*
X489727Y227697D01*
X489772Y227737D01*
X489789Y227749D01*
X489802Y227764D01*
X489847Y227804D01*
X490868Y228825D01*
X491236Y228825D01*
X491354Y228840D01*
X491473Y228847D01*
X491511Y228860D01*
X491552Y228865D01*
X491662Y228908D01*
X491775Y228945D01*
X491810Y228967D01*
X491847Y228982D01*
X491943Y229051D01*
X492044Y229115D01*
X492072Y229145D01*
X492105Y229168D01*
X492181Y229260D01*
X492262Y229347D01*
X492282Y229382D01*
X492307Y229413D01*
X492358Y229521D01*
X492416Y229625D01*
X492426Y229665D01*
X492443Y229701D01*
X492465Y229818D01*
X492495Y229933D01*
X492499Y229993D01*
X492503Y230013D01*
X492501Y230034D01*
X492505Y230094D01*
X492505Y259947D01*
X492502Y259976D01*
X492504Y260006D01*
X492482Y260134D01*
X492465Y260263D01*
X492455Y260290D01*
X492450Y260319D01*
X492396Y260438D01*
X492348Y260558D01*
X492331Y260582D01*
X492319Y260609D01*
X492238Y260711D01*
X492162Y260816D01*
X492139Y260835D01*
X492120Y260858D01*
X492017Y260936D01*
X491917Y261019D01*
X491890Y261031D01*
X491866Y261049D01*
X491722Y261120D01*
X491604Y261169D01*
X489769Y263004D01*
X488775Y265402D01*
X488775Y267998D01*
X489769Y270396D01*
X491604Y272231D01*
X494002Y273225D01*
X496598Y273225D01*
X498996Y272231D01*
X500831Y270396D01*
X501825Y267998D01*
X501825Y265402D01*
X500831Y263004D01*
X498996Y261169D01*
X498878Y261120D01*
X498853Y261105D01*
X498825Y261096D01*
X498715Y261027D01*
X498602Y260962D01*
X498581Y260942D01*
X498556Y260926D01*
X498467Y260831D01*
X498374Y260741D01*
X498358Y260716D01*
X498338Y260694D01*
X498275Y260581D01*
X498207Y260470D01*
X498199Y260442D01*
X498184Y260416D01*
X498152Y260290D01*
X498114Y260166D01*
X498112Y260136D01*
X498105Y260108D01*
X498095Y259947D01*
X498095Y230094D01*
X498110Y229976D01*
X498117Y229857D01*
X498130Y229819D01*
X498135Y229778D01*
X498178Y229668D01*
X498215Y229555D01*
X498237Y229520D01*
X498252Y229483D01*
X498321Y229387D01*
X498385Y229286D01*
X498415Y229258D01*
X498438Y229225D01*
X498530Y229149D01*
X498617Y229068D01*
X498652Y229048D01*
X498683Y229023D01*
X498791Y228972D01*
X498895Y228914D01*
X498935Y228904D01*
X498971Y228887D01*
X499088Y228865D01*
X499203Y228835D01*
X499263Y228831D01*
X499283Y228827D01*
X499304Y228829D01*
X499364Y228825D01*
X499732Y228825D01*
X500752Y227804D01*
X500847Y227731D01*
X500936Y227652D01*
X500972Y227634D01*
X501004Y227609D01*
X501113Y227562D01*
X501219Y227507D01*
X501258Y227499D01*
X501296Y227483D01*
X501413Y227464D01*
X501529Y227438D01*
X501570Y227439D01*
X501610Y227433D01*
X501728Y227444D01*
X501847Y227447D01*
X501886Y227459D01*
X501926Y227462D01*
X502039Y227503D01*
X502153Y227536D01*
X502187Y227556D01*
X502226Y227570D01*
X502324Y227637D01*
X502427Y227697D01*
X502472Y227737D01*
X502489Y227749D01*
X502502Y227764D01*
X502547Y227804D01*
X503568Y228825D01*
X503936Y228825D01*
X504054Y228840D01*
X504173Y228847D01*
X504211Y228860D01*
X504252Y228865D01*
X504362Y228908D01*
X504475Y228945D01*
X504510Y228967D01*
X504547Y228982D01*
X504643Y229051D01*
X504744Y229115D01*
X504772Y229145D01*
X504805Y229168D01*
X504881Y229260D01*
X504962Y229347D01*
X504982Y229382D01*
X505007Y229413D01*
X505058Y229521D01*
X505116Y229625D01*
X505126Y229665D01*
X505138Y229690D01*
X555634Y280186D01*
X555694Y280264D01*
X555762Y280336D01*
X555791Y280389D01*
X555828Y280437D01*
X555868Y280528D01*
X555916Y280615D01*
X555931Y280673D01*
X555955Y280729D01*
X555970Y280827D01*
X555995Y280923D01*
X556001Y281023D01*
X556005Y281043D01*
X556003Y281055D01*
X556005Y281083D01*
X556005Y285347D01*
X556002Y285376D01*
X556004Y285406D01*
X555982Y285534D01*
X555965Y285663D01*
X555955Y285690D01*
X555950Y285719D01*
X555896Y285838D01*
X555848Y285958D01*
X555831Y285982D01*
X555819Y286009D01*
X555738Y286111D01*
X555662Y286216D01*
X555639Y286235D01*
X555620Y286258D01*
X555517Y286336D01*
X555417Y286419D01*
X555390Y286431D01*
X555366Y286449D01*
X555222Y286520D01*
X555104Y286569D01*
X553269Y288404D01*
X552275Y290802D01*
X552275Y293398D01*
X553269Y295796D01*
X555104Y297631D01*
X557502Y298625D01*
X560098Y298625D01*
X562496Y297631D01*
X564331Y295796D01*
X565325Y293398D01*
X565325Y290802D01*
X564331Y288404D01*
X562496Y286569D01*
X562378Y286520D01*
X562353Y286505D01*
X562325Y286496D01*
X562215Y286427D01*
X562102Y286362D01*
X562081Y286342D01*
X562056Y286326D01*
X561967Y286231D01*
X561874Y286141D01*
X561858Y286116D01*
X561838Y286094D01*
X561775Y285981D01*
X561707Y285870D01*
X561699Y285842D01*
X561684Y285816D01*
X561652Y285690D01*
X561614Y285566D01*
X561612Y285536D01*
X561605Y285508D01*
X561595Y285347D01*
X561595Y278242D01*
X559586Y276234D01*
X513202Y229849D01*
X513129Y229755D01*
X513050Y229666D01*
X513032Y229630D01*
X513007Y229598D01*
X512960Y229489D01*
X512905Y229383D01*
X512897Y229344D01*
X512881Y229306D01*
X512862Y229189D01*
X512836Y229073D01*
X512837Y229032D01*
X512831Y228992D01*
X512842Y228874D01*
X512845Y228755D01*
X512857Y228716D01*
X512860Y228676D01*
X512901Y228563D01*
X512934Y228449D01*
X512954Y228414D01*
X512968Y228376D01*
X513035Y228278D01*
X513095Y228175D01*
X513135Y228130D01*
X513147Y228113D01*
X513162Y228100D01*
X513202Y228054D01*
X513452Y227804D01*
X513547Y227731D01*
X513636Y227652D01*
X513672Y227634D01*
X513704Y227609D01*
X513813Y227562D01*
X513919Y227507D01*
X513958Y227499D01*
X513996Y227483D01*
X514113Y227464D01*
X514229Y227438D01*
X514270Y227439D01*
X514310Y227433D01*
X514428Y227444D01*
X514547Y227447D01*
X514586Y227459D01*
X514626Y227462D01*
X514739Y227503D01*
X514853Y227536D01*
X514887Y227556D01*
X514926Y227570D01*
X515024Y227637D01*
X515127Y227697D01*
X515172Y227737D01*
X515189Y227749D01*
X515202Y227764D01*
X515247Y227804D01*
X516268Y228825D01*
X525132Y228825D01*
X526025Y227932D01*
X526025Y222364D01*
X526040Y222246D01*
X526047Y222127D01*
X526060Y222089D01*
X526065Y222048D01*
X526108Y221938D01*
X526145Y221825D01*
X526167Y221790D01*
X526182Y221753D01*
X526251Y221657D01*
X526315Y221556D01*
X526345Y221528D01*
X526368Y221495D01*
X526460Y221419D01*
X526547Y221338D01*
X526582Y221318D01*
X526613Y221293D01*
X526721Y221242D01*
X526825Y221184D01*
X526865Y221174D01*
X526901Y221157D01*
X527018Y221135D01*
X527133Y221105D01*
X527193Y221101D01*
X527213Y221097D01*
X527234Y221099D01*
X527294Y221095D01*
X546817Y221095D01*
X546915Y221107D01*
X547014Y221110D01*
X547072Y221127D01*
X547132Y221135D01*
X547224Y221171D01*
X547319Y221199D01*
X547372Y221229D01*
X547428Y221252D01*
X547508Y221310D01*
X547593Y221360D01*
X547669Y221426D01*
X547685Y221438D01*
X547693Y221448D01*
X547714Y221466D01*
X564749Y238501D01*
X564767Y238524D01*
X564789Y238544D01*
X564864Y238650D01*
X564944Y238752D01*
X564956Y238780D01*
X564973Y238804D01*
X565019Y238925D01*
X565070Y239044D01*
X565075Y239073D01*
X565085Y239101D01*
X565100Y239230D01*
X565120Y239358D01*
X565117Y239388D01*
X565121Y239417D01*
X565102Y239546D01*
X565090Y239675D01*
X565080Y239703D01*
X565076Y239732D01*
X565024Y239884D01*
X564975Y240002D01*
X564975Y242598D01*
X565969Y244996D01*
X567804Y246831D01*
X570202Y247825D01*
X572798Y247825D01*
X575196Y246831D01*
X577031Y244996D01*
X578025Y242598D01*
X578025Y240002D01*
X577031Y237604D01*
X575196Y235769D01*
X572798Y234775D01*
X570202Y234775D01*
X570084Y234824D01*
X570056Y234832D01*
X570030Y234845D01*
X569903Y234874D01*
X569778Y234908D01*
X569748Y234908D01*
X569719Y234915D01*
X569590Y234911D01*
X569460Y234913D01*
X569431Y234906D01*
X569401Y234905D01*
X569277Y234869D01*
X569150Y234839D01*
X569124Y234825D01*
X569096Y234817D01*
X568984Y234751D01*
X568869Y234690D01*
X568848Y234670D01*
X568822Y234655D01*
X568701Y234549D01*
X549658Y215505D01*
X527294Y215505D01*
X527176Y215490D01*
X527057Y215483D01*
X527019Y215470D01*
X526978Y215465D01*
X526868Y215422D01*
X526755Y215385D01*
X526720Y215363D01*
X526683Y215348D01*
X526587Y215279D01*
X526486Y215215D01*
X526458Y215185D01*
X526425Y215162D01*
X526349Y215070D01*
X526268Y214983D01*
X526248Y214948D01*
X526223Y214917D01*
X526172Y214809D01*
X526114Y214705D01*
X526104Y214665D01*
X526087Y214629D01*
X526065Y214512D01*
X526035Y214397D01*
X526031Y214337D01*
X526027Y214317D01*
X526029Y214296D01*
X526025Y214236D01*
X526025Y209794D01*
X526040Y209676D01*
X526047Y209557D01*
X526060Y209519D01*
X526065Y209478D01*
X526108Y209368D01*
X526145Y209255D01*
X526167Y209220D01*
X526182Y209183D01*
X526251Y209087D01*
X526315Y208986D01*
X526345Y208958D01*
X526368Y208925D01*
X526460Y208849D01*
X526547Y208768D01*
X526582Y208748D01*
X526613Y208723D01*
X526721Y208672D01*
X526825Y208614D01*
X526865Y208604D01*
X526901Y208587D01*
X527018Y208565D01*
X527133Y208535D01*
X527193Y208531D01*
X527213Y208527D01*
X527234Y208529D01*
X527294Y208525D01*
X545432Y208525D01*
X546325Y207632D01*
X546325Y207264D01*
X546340Y207146D01*
X546347Y207027D01*
X546360Y206989D01*
X546365Y206948D01*
X546408Y206838D01*
X546445Y206725D01*
X546467Y206690D01*
X546482Y206653D01*
X546551Y206557D01*
X546615Y206456D01*
X546645Y206428D01*
X546668Y206395D01*
X546760Y206319D01*
X546847Y206238D01*
X546882Y206218D01*
X546913Y206193D01*
X547021Y206142D01*
X547125Y206084D01*
X547165Y206074D01*
X547201Y206057D01*
X547318Y206035D01*
X547433Y206005D01*
X547493Y206001D01*
X547513Y205997D01*
X547534Y205999D01*
X547594Y205995D01*
X595217Y205995D01*
X595315Y206007D01*
X595414Y206010D01*
X595472Y206027D01*
X595532Y206035D01*
X595624Y206071D01*
X595719Y206099D01*
X595772Y206129D01*
X595828Y206152D01*
X595908Y206210D01*
X595993Y206260D01*
X596069Y206326D01*
X596085Y206338D01*
X596093Y206348D01*
X596114Y206366D01*
X615549Y225801D01*
X615567Y225825D01*
X615589Y225844D01*
X615664Y225950D01*
X615744Y226053D01*
X615756Y226080D01*
X615773Y226104D01*
X615818Y226225D01*
X615870Y226344D01*
X615875Y226374D01*
X615885Y226401D01*
X615900Y226530D01*
X615920Y226658D01*
X615917Y226688D01*
X615921Y226717D01*
X615902Y226846D01*
X615890Y226975D01*
X615880Y227003D01*
X615876Y227032D01*
X615824Y227184D01*
X615775Y227302D01*
X615775Y229898D01*
X616769Y232296D01*
X618604Y234131D01*
X621002Y235125D01*
X623598Y235125D01*
X625996Y234131D01*
X627831Y232296D01*
X628825Y229898D01*
X628825Y227302D01*
X627831Y224904D01*
X625996Y223069D01*
X623598Y222075D01*
X621002Y222075D01*
X620884Y222124D01*
X620856Y222132D01*
X620830Y222145D01*
X620703Y222174D01*
X620578Y222208D01*
X620548Y222208D01*
X620519Y222215D01*
X620390Y222211D01*
X620260Y222213D01*
X620231Y222206D01*
X620202Y222205D01*
X620077Y222169D01*
X619950Y222139D01*
X619924Y222125D01*
X619896Y222117D01*
X619784Y222051D01*
X619669Y221990D01*
X619648Y221970D01*
X619622Y221955D01*
X619501Y221849D01*
X609544Y211891D01*
X609459Y211782D01*
X609370Y211675D01*
X609361Y211656D01*
X609349Y211640D01*
X609293Y211512D01*
X609234Y211387D01*
X609231Y211367D01*
X609223Y211348D01*
X609201Y211210D01*
X609175Y211074D01*
X609176Y211054D01*
X609173Y211034D01*
X609186Y210895D01*
X609194Y210757D01*
X609201Y210738D01*
X609202Y210718D01*
X609250Y210586D01*
X609292Y210455D01*
X609303Y210437D01*
X609310Y210418D01*
X609388Y210303D01*
X609463Y210186D01*
X609477Y210172D01*
X609489Y210155D01*
X609593Y210063D01*
X609694Y209968D01*
X609712Y209958D01*
X609727Y209945D01*
X609851Y209881D01*
X609973Y209814D01*
X609992Y209809D01*
X610010Y209800D01*
X610146Y209770D01*
X610281Y209735D01*
X610309Y209733D01*
X610321Y209730D01*
X610341Y209731D01*
X610441Y209725D01*
X610898Y209725D01*
X613296Y208731D01*
X615131Y206896D01*
X616125Y204498D01*
X616125Y201902D01*
X615131Y199504D01*
X613296Y197669D01*
X610898Y196675D01*
X608302Y196675D01*
X608184Y196724D01*
X608156Y196732D01*
X608130Y196745D01*
X608003Y196774D01*
X607878Y196808D01*
X607848Y196808D01*
X607819Y196815D01*
X607690Y196811D01*
X607560Y196813D01*
X607531Y196806D01*
X607502Y196805D01*
X607377Y196769D01*
X607250Y196739D01*
X607224Y196725D01*
X607196Y196717D01*
X607084Y196651D01*
X606969Y196590D01*
X606948Y196570D01*
X606922Y196555D01*
X606801Y196449D01*
X599328Y188975D01*
X588294Y188975D01*
X588176Y188960D01*
X588057Y188953D01*
X588019Y188940D01*
X587978Y188935D01*
X587868Y188892D01*
X587755Y188855D01*
X587720Y188833D01*
X587683Y188818D01*
X587587Y188749D01*
X587486Y188685D01*
X587458Y188655D01*
X587425Y188632D01*
X587349Y188540D01*
X587268Y188453D01*
X587248Y188418D01*
X587223Y188387D01*
X587172Y188279D01*
X587114Y188175D01*
X587104Y188135D01*
X587087Y188099D01*
X587065Y187982D01*
X587035Y187867D01*
X587031Y187807D01*
X587027Y187787D01*
X587029Y187766D01*
X587025Y187706D01*
X587025Y185738D01*
X586969Y185682D01*
X586896Y185588D01*
X586817Y185499D01*
X586799Y185463D01*
X586774Y185431D01*
X586727Y185322D01*
X586672Y185216D01*
X586664Y185176D01*
X586648Y185139D01*
X586629Y185022D01*
X586603Y184906D01*
X586604Y184865D01*
X586598Y184825D01*
X586609Y184706D01*
X586612Y184588D01*
X586624Y184549D01*
X586627Y184509D01*
X586668Y184397D01*
X586701Y184282D01*
X586721Y184247D01*
X586735Y184209D01*
X586802Y184111D01*
X586862Y184008D01*
X586902Y183963D01*
X586914Y183946D01*
X586929Y183933D01*
X586969Y183887D01*
X587025Y183832D01*
X587025Y181864D01*
X587040Y181746D01*
X587047Y181627D01*
X587060Y181589D01*
X587065Y181548D01*
X587108Y181438D01*
X587145Y181325D01*
X587167Y181290D01*
X587182Y181253D01*
X587251Y181157D01*
X587315Y181056D01*
X587345Y181028D01*
X587368Y180995D01*
X587460Y180919D01*
X587547Y180838D01*
X587582Y180818D01*
X587613Y180793D01*
X587721Y180742D01*
X587825Y180684D01*
X587865Y180674D01*
X587901Y180657D01*
X588018Y180635D01*
X588133Y180605D01*
X588193Y180601D01*
X588213Y180597D01*
X588234Y180599D01*
X588294Y180595D01*
X602847Y180595D01*
X602876Y180598D01*
X602906Y180596D01*
X603034Y180618D01*
X603163Y180635D01*
X603190Y180645D01*
X603219Y180650D01*
X603338Y180704D01*
X603458Y180752D01*
X603482Y180769D01*
X603509Y180781D01*
X603611Y180862D01*
X603716Y180938D01*
X603735Y180961D01*
X603758Y180980D01*
X603836Y181083D01*
X603919Y181183D01*
X603931Y181210D01*
X603949Y181234D01*
X604020Y181378D01*
X604069Y181496D01*
X605904Y183331D01*
X608302Y184325D01*
X610898Y184325D01*
X613296Y183331D01*
X615131Y181496D01*
X616125Y179098D01*
X616125Y176502D01*
X615131Y174104D01*
X613296Y172269D01*
X610898Y171275D01*
X608302Y171275D01*
X605904Y172269D01*
X604069Y174104D01*
X604020Y174222D01*
X604005Y174247D01*
X603996Y174275D01*
X603927Y174385D01*
X603862Y174498D01*
X603842Y174519D01*
X603826Y174544D01*
X603731Y174633D01*
X603641Y174726D01*
X603616Y174742D01*
X603594Y174762D01*
X603481Y174825D01*
X603370Y174893D01*
X603342Y174901D01*
X603316Y174916D01*
X603190Y174948D01*
X603066Y174986D01*
X603036Y174988D01*
X603008Y174995D01*
X602847Y175005D01*
X588294Y175005D01*
X588176Y174990D01*
X588057Y174983D01*
X588019Y174970D01*
X587978Y174965D01*
X587868Y174922D01*
X587755Y174885D01*
X587720Y174863D01*
X587683Y174848D01*
X587587Y174779D01*
X587486Y174715D01*
X587458Y174685D01*
X587425Y174662D01*
X587349Y174570D01*
X587268Y174483D01*
X587248Y174448D01*
X587223Y174417D01*
X587172Y174309D01*
X587114Y174205D01*
X587104Y174165D01*
X587087Y174129D01*
X587065Y174012D01*
X587035Y173897D01*
X587031Y173837D01*
X587027Y173817D01*
X587029Y173796D01*
X587025Y173736D01*
X587025Y171768D01*
X586132Y170875D01*
X574368Y170875D01*
X573475Y171768D01*
X573475Y183832D01*
X573531Y183887D01*
X573604Y183982D01*
X573683Y184071D01*
X573701Y184107D01*
X573726Y184139D01*
X573773Y184248D01*
X573828Y184354D01*
X573836Y184394D01*
X573852Y184431D01*
X573871Y184548D01*
X573897Y184664D01*
X573896Y184705D01*
X573902Y184745D01*
X573891Y184863D01*
X573888Y184982D01*
X573876Y185021D01*
X573873Y185061D01*
X573832Y185174D01*
X573799Y185288D01*
X573779Y185322D01*
X573765Y185361D01*
X573698Y185459D01*
X573638Y185562D01*
X573598Y185607D01*
X573586Y185624D01*
X573571Y185637D01*
X573531Y185682D01*
X573475Y185738D01*
X573475Y197802D01*
X573912Y198239D01*
X573997Y198348D01*
X574086Y198455D01*
X574095Y198474D01*
X574107Y198490D01*
X574163Y198618D01*
X574222Y198743D01*
X574225Y198763D01*
X574234Y198782D01*
X574255Y198920D01*
X574281Y199056D01*
X574280Y199076D01*
X574283Y199096D01*
X574270Y199235D01*
X574262Y199373D01*
X574255Y199392D01*
X574254Y199412D01*
X574206Y199543D01*
X574164Y199675D01*
X574153Y199693D01*
X574146Y199712D01*
X574068Y199826D01*
X573993Y199944D01*
X573979Y199958D01*
X573967Y199975D01*
X573863Y200067D01*
X573762Y200162D01*
X573744Y200172D01*
X573729Y200185D01*
X573605Y200248D01*
X573483Y200316D01*
X573464Y200321D01*
X573446Y200330D01*
X573310Y200360D01*
X573175Y200395D01*
X573147Y200397D01*
X573135Y200400D01*
X573115Y200399D01*
X573015Y200405D01*
X569985Y200405D01*
X569847Y200388D01*
X569709Y200375D01*
X569690Y200368D01*
X569670Y200365D01*
X569541Y200314D01*
X569410Y200267D01*
X569393Y200256D01*
X569374Y200248D01*
X569262Y200167D01*
X569146Y200089D01*
X569133Y200073D01*
X569117Y200062D01*
X569028Y199954D01*
X568936Y199850D01*
X568927Y199832D01*
X568914Y199817D01*
X568855Y199691D01*
X568791Y199567D01*
X568787Y199547D01*
X568778Y199529D01*
X568752Y199392D01*
X568722Y199257D01*
X568722Y199236D01*
X568719Y199217D01*
X568727Y199078D01*
X568731Y198939D01*
X568737Y198919D01*
X568738Y198899D01*
X568781Y198767D01*
X568820Y198633D01*
X568830Y198616D01*
X568836Y198597D01*
X568911Y198479D01*
X568981Y198359D01*
X569000Y198338D01*
X569007Y198328D01*
X569021Y198314D01*
X569088Y198239D01*
X569525Y197802D01*
X569525Y185738D01*
X569469Y185682D01*
X569396Y185588D01*
X569317Y185499D01*
X569299Y185463D01*
X569274Y185431D01*
X569227Y185322D01*
X569172Y185216D01*
X569164Y185176D01*
X569148Y185139D01*
X569129Y185022D01*
X569103Y184906D01*
X569104Y184865D01*
X569098Y184825D01*
X569109Y184706D01*
X569112Y184588D01*
X569124Y184549D01*
X569127Y184509D01*
X569168Y184397D01*
X569201Y184282D01*
X569221Y184247D01*
X569235Y184209D01*
X569302Y184111D01*
X569362Y184008D01*
X569402Y183963D01*
X569414Y183946D01*
X569429Y183933D01*
X569469Y183887D01*
X569525Y183832D01*
X569525Y171768D01*
X568632Y170875D01*
X556868Y170875D01*
X555975Y171768D01*
X555975Y173736D01*
X555960Y173854D01*
X555953Y173973D01*
X555940Y174011D01*
X555935Y174052D01*
X555892Y174162D01*
X555855Y174275D01*
X555833Y174310D01*
X555818Y174347D01*
X555749Y174443D01*
X555685Y174544D01*
X555655Y174572D01*
X555632Y174605D01*
X555540Y174681D01*
X555453Y174762D01*
X555418Y174782D01*
X555387Y174807D01*
X555279Y174858D01*
X555175Y174916D01*
X555135Y174926D01*
X555099Y174943D01*
X554982Y174965D01*
X554867Y174995D01*
X554807Y174999D01*
X554787Y175003D01*
X554766Y175001D01*
X554706Y175005D01*
X547594Y175005D01*
X547476Y174990D01*
X547357Y174983D01*
X547319Y174970D01*
X547278Y174965D01*
X547168Y174922D01*
X547055Y174885D01*
X547020Y174863D01*
X546983Y174848D01*
X546887Y174779D01*
X546786Y174715D01*
X546758Y174685D01*
X546725Y174662D01*
X546649Y174570D01*
X546568Y174483D01*
X546548Y174448D01*
X546523Y174417D01*
X546472Y174309D01*
X546414Y174205D01*
X546404Y174165D01*
X546387Y174129D01*
X546365Y174012D01*
X546335Y173897D01*
X546331Y173837D01*
X546327Y173817D01*
X546329Y173796D01*
X546325Y173736D01*
X546325Y173368D01*
X545304Y172348D01*
X545231Y172253D01*
X545152Y172164D01*
X545134Y172128D01*
X545109Y172096D01*
X545062Y171987D01*
X545007Y171881D01*
X544999Y171842D01*
X544983Y171804D01*
X544964Y171687D01*
X544938Y171571D01*
X544939Y171530D01*
X544933Y171490D01*
X544944Y171372D01*
X544947Y171253D01*
X544959Y171214D01*
X544962Y171174D01*
X545003Y171061D01*
X545036Y170947D01*
X545056Y170913D01*
X545070Y170874D01*
X545137Y170776D01*
X545197Y170673D01*
X545237Y170628D01*
X545249Y170611D01*
X545264Y170598D01*
X545304Y170553D01*
X546325Y169532D01*
X546325Y169164D01*
X546340Y169046D01*
X546347Y168927D01*
X546360Y168889D01*
X546365Y168848D01*
X546408Y168738D01*
X546445Y168625D01*
X546467Y168590D01*
X546482Y168553D01*
X546551Y168457D01*
X546615Y168356D01*
X546645Y168328D01*
X546668Y168295D01*
X546760Y168219D01*
X546847Y168138D01*
X546882Y168118D01*
X546913Y168093D01*
X547021Y168042D01*
X547125Y167984D01*
X547165Y167974D01*
X547201Y167957D01*
X547318Y167935D01*
X547433Y167905D01*
X547493Y167901D01*
X547513Y167897D01*
X547534Y167899D01*
X547594Y167895D01*
X559958Y167895D01*
X599695Y128158D01*
X599695Y121053D01*
X599698Y121024D01*
X599696Y120994D01*
X599718Y120866D01*
X599735Y120737D01*
X599745Y120710D01*
X599750Y120681D01*
X599804Y120562D01*
X599852Y120442D01*
X599869Y120418D01*
X599881Y120391D01*
X599962Y120289D01*
X600038Y120184D01*
X600061Y120165D01*
X600080Y120142D01*
X600183Y120064D01*
X600283Y119981D01*
X600310Y119969D01*
X600334Y119951D01*
X600478Y119880D01*
X600596Y119831D01*
X602431Y117996D01*
X603425Y115598D01*
X603425Y113002D01*
X602431Y110604D01*
X600596Y108769D01*
X598198Y107775D01*
X595602Y107775D01*
X593204Y108769D01*
X591369Y110604D01*
X590375Y113002D01*
X590375Y115598D01*
X591369Y117996D01*
X593204Y119831D01*
X593322Y119880D01*
X593347Y119895D01*
X593375Y119904D01*
X593485Y119973D01*
X593598Y120038D01*
X593619Y120058D01*
X593644Y120074D01*
X593733Y120169D01*
X593826Y120259D01*
X593842Y120284D01*
X593862Y120306D01*
X593925Y120419D01*
X593993Y120530D01*
X594001Y120558D01*
X594016Y120584D01*
X594048Y120710D01*
X594086Y120834D01*
X594088Y120864D01*
X594095Y120892D01*
X594105Y121053D01*
X594105Y125317D01*
X594093Y125415D01*
X594090Y125514D01*
X594073Y125572D01*
X594065Y125632D01*
X594029Y125724D01*
X594001Y125819D01*
X593971Y125872D01*
X593948Y125928D01*
X593890Y126008D01*
X593840Y126093D01*
X593774Y126169D01*
X593762Y126185D01*
X593752Y126193D01*
X593734Y126214D01*
X558014Y161934D01*
X557936Y161994D01*
X557864Y162062D01*
X557811Y162091D01*
X557763Y162128D01*
X557672Y162168D01*
X557585Y162216D01*
X557527Y162231D01*
X557471Y162255D01*
X557373Y162270D01*
X557277Y162295D01*
X557177Y162301D01*
X557157Y162305D01*
X557145Y162303D01*
X557117Y162305D01*
X547594Y162305D01*
X547476Y162290D01*
X547357Y162283D01*
X547319Y162270D01*
X547278Y162265D01*
X547168Y162222D01*
X547055Y162185D01*
X547020Y162163D01*
X546983Y162148D01*
X546887Y162079D01*
X546786Y162015D01*
X546758Y161985D01*
X546725Y161962D01*
X546649Y161870D01*
X546568Y161783D01*
X546548Y161748D01*
X546523Y161717D01*
X546472Y161609D01*
X546414Y161505D01*
X546404Y161465D01*
X546387Y161429D01*
X546365Y161312D01*
X546335Y161197D01*
X546331Y161137D01*
X546327Y161117D01*
X546329Y161096D01*
X546325Y161036D01*
X546325Y160668D01*
X545304Y159648D01*
X545231Y159553D01*
X545152Y159464D01*
X545134Y159428D01*
X545109Y159396D01*
X545062Y159287D01*
X545007Y159181D01*
X544999Y159142D01*
X544983Y159104D01*
X544964Y158987D01*
X544938Y158871D01*
X544939Y158830D01*
X544933Y158790D01*
X544944Y158672D01*
X544947Y158553D01*
X544959Y158514D01*
X544962Y158474D01*
X545003Y158361D01*
X545036Y158247D01*
X545056Y158213D01*
X545070Y158174D01*
X545137Y158076D01*
X545197Y157973D01*
X545237Y157928D01*
X545249Y157911D01*
X545264Y157898D01*
X545304Y157853D01*
X546325Y156832D01*
X546325Y147968D01*
X545432Y147075D01*
X539864Y147075D01*
X539746Y147060D01*
X539627Y147053D01*
X539589Y147040D01*
X539548Y147035D01*
X539438Y146992D01*
X539325Y146955D01*
X539290Y146933D01*
X539253Y146918D01*
X539157Y146849D01*
X539056Y146785D01*
X539028Y146755D01*
X538995Y146732D01*
X538919Y146640D01*
X538838Y146553D01*
X538818Y146518D01*
X538793Y146487D01*
X538742Y146379D01*
X538684Y146275D01*
X538674Y146235D01*
X538657Y146199D01*
X538635Y146082D01*
X538605Y145967D01*
X538601Y145907D01*
X538597Y145887D01*
X538599Y145866D01*
X538595Y145806D01*
X538595Y138983D01*
X538607Y138885D01*
X538610Y138786D01*
X538627Y138728D01*
X538635Y138668D01*
X538671Y138576D01*
X538699Y138481D01*
X538729Y138428D01*
X538752Y138372D01*
X538810Y138292D01*
X538860Y138207D01*
X538926Y138131D01*
X538938Y138115D01*
X538948Y138107D01*
X538966Y138086D01*
X543301Y133751D01*
X543325Y133733D01*
X543344Y133711D01*
X543450Y133636D01*
X543553Y133556D01*
X543580Y133544D01*
X543604Y133527D01*
X543725Y133482D01*
X543844Y133430D01*
X543874Y133425D01*
X543901Y133415D01*
X544030Y133400D01*
X544158Y133380D01*
X544188Y133383D01*
X544217Y133379D01*
X544346Y133398D01*
X544475Y133410D01*
X544503Y133420D01*
X544532Y133424D01*
X544684Y133476D01*
X544802Y133525D01*
X547398Y133525D01*
X549796Y132531D01*
X551631Y130696D01*
X552625Y128298D01*
X552625Y125702D01*
X551631Y123304D01*
X549796Y121469D01*
X547398Y120475D01*
X544802Y120475D01*
X542404Y121469D01*
X540569Y123304D01*
X539575Y125702D01*
X539575Y128298D01*
X539624Y128416D01*
X539632Y128444D01*
X539645Y128470D01*
X539674Y128597D01*
X539708Y128722D01*
X539708Y128752D01*
X539715Y128781D01*
X539711Y128910D01*
X539713Y129040D01*
X539706Y129069D01*
X539705Y129098D01*
X539669Y129223D01*
X539639Y129350D01*
X539625Y129376D01*
X539617Y129404D01*
X539551Y129516D01*
X539490Y129631D01*
X539470Y129652D01*
X539455Y129678D01*
X539349Y129799D01*
X533005Y136142D01*
X533005Y145806D01*
X532990Y145924D01*
X532983Y146043D01*
X532970Y146081D01*
X532965Y146122D01*
X532922Y146232D01*
X532885Y146345D01*
X532863Y146380D01*
X532848Y146417D01*
X532779Y146513D01*
X532715Y146614D01*
X532685Y146642D01*
X532662Y146675D01*
X532570Y146751D01*
X532483Y146832D01*
X532448Y146852D01*
X532417Y146877D01*
X532309Y146928D01*
X532205Y146986D01*
X532165Y146996D01*
X532129Y147013D01*
X532012Y147035D01*
X531897Y147065D01*
X531837Y147069D01*
X531817Y147073D01*
X531796Y147071D01*
X531736Y147075D01*
X527294Y147075D01*
X527176Y147060D01*
X527057Y147053D01*
X527019Y147040D01*
X526978Y147035D01*
X526868Y146992D01*
X526755Y146955D01*
X526720Y146933D01*
X526683Y146918D01*
X526587Y146849D01*
X526486Y146785D01*
X526458Y146755D01*
X526425Y146732D01*
X526349Y146640D01*
X526268Y146553D01*
X526248Y146518D01*
X526223Y146487D01*
X526172Y146379D01*
X526114Y146275D01*
X526104Y146235D01*
X526087Y146199D01*
X526065Y146082D01*
X526035Y145967D01*
X526031Y145907D01*
X526027Y145887D01*
X526029Y145866D01*
X526025Y145806D01*
X526025Y127668D01*
X525902Y127546D01*
X525829Y127451D01*
X525750Y127362D01*
X525732Y127326D01*
X525707Y127294D01*
X525660Y127185D01*
X525605Y127079D01*
X525597Y127040D01*
X525581Y127002D01*
X525562Y126884D01*
X525536Y126769D01*
X525537Y126728D01*
X525531Y126688D01*
X525542Y126570D01*
X525545Y126451D01*
X525557Y126412D01*
X525560Y126372D01*
X525601Y126260D01*
X525634Y126145D01*
X525654Y126110D01*
X525668Y126072D01*
X525735Y125974D01*
X525795Y125871D01*
X525835Y125826D01*
X525847Y125809D01*
X525862Y125796D01*
X525902Y125751D01*
X527836Y123816D01*
X529845Y121808D01*
X529845Y109737D01*
X529857Y109639D01*
X529860Y109540D01*
X529877Y109482D01*
X529885Y109422D01*
X529921Y109330D01*
X529949Y109235D01*
X529979Y109182D01*
X530002Y109126D01*
X530060Y109046D01*
X530110Y108961D01*
X530176Y108885D01*
X530188Y108869D01*
X530198Y108861D01*
X530216Y108840D01*
X531425Y107632D01*
X531425Y95568D01*
X530532Y94675D01*
X518768Y94675D01*
G37*
%LPD*%
G36*
X514428Y146444D02*
X514428Y146444D01*
X514547Y146447D01*
X514586Y146459D01*
X514626Y146462D01*
X514739Y146503D01*
X514853Y146536D01*
X514887Y146556D01*
X514926Y146570D01*
X515024Y146637D01*
X515127Y146697D01*
X515172Y146737D01*
X515189Y146749D01*
X515202Y146764D01*
X515247Y146804D01*
X516268Y147825D01*
X524006Y147825D01*
X524124Y147840D01*
X524243Y147847D01*
X524281Y147860D01*
X524322Y147865D01*
X524432Y147908D01*
X524545Y147945D01*
X524580Y147967D01*
X524617Y147982D01*
X524713Y148051D01*
X524814Y148115D01*
X524842Y148145D01*
X524875Y148168D01*
X524951Y148260D01*
X525032Y148347D01*
X525052Y148382D01*
X525077Y148413D01*
X525128Y148521D01*
X525186Y148625D01*
X525196Y148665D01*
X525213Y148701D01*
X525235Y148818D01*
X525265Y148933D01*
X525269Y148993D01*
X525273Y149013D01*
X525271Y149034D01*
X525275Y149094D01*
X525275Y156832D01*
X526296Y157853D01*
X526369Y157947D01*
X526448Y158036D01*
X526466Y158072D01*
X526491Y158104D01*
X526539Y158213D01*
X526593Y158319D01*
X526601Y158358D01*
X526617Y158396D01*
X526636Y158513D01*
X526662Y158629D01*
X526661Y158670D01*
X526667Y158710D01*
X526656Y158828D01*
X526653Y158947D01*
X526641Y158986D01*
X526638Y159026D01*
X526597Y159138D01*
X526564Y159253D01*
X526544Y159288D01*
X526530Y159326D01*
X526463Y159424D01*
X526403Y159527D01*
X526363Y159572D01*
X526351Y159589D01*
X526336Y159602D01*
X526296Y159648D01*
X525275Y160668D01*
X525275Y169532D01*
X526296Y170553D01*
X526369Y170647D01*
X526448Y170736D01*
X526466Y170772D01*
X526491Y170804D01*
X526539Y170913D01*
X526593Y171019D01*
X526601Y171058D01*
X526617Y171096D01*
X526636Y171213D01*
X526662Y171329D01*
X526661Y171370D01*
X526667Y171410D01*
X526656Y171528D01*
X526653Y171647D01*
X526641Y171686D01*
X526638Y171726D01*
X526597Y171838D01*
X526564Y171953D01*
X526544Y171988D01*
X526530Y172026D01*
X526463Y172124D01*
X526403Y172227D01*
X526363Y172272D01*
X526351Y172289D01*
X526336Y172302D01*
X526296Y172348D01*
X525275Y173368D01*
X525275Y182232D01*
X526296Y183253D01*
X526369Y183347D01*
X526448Y183436D01*
X526466Y183472D01*
X526491Y183504D01*
X526539Y183613D01*
X526593Y183719D01*
X526601Y183758D01*
X526617Y183796D01*
X526636Y183913D01*
X526662Y184029D01*
X526661Y184070D01*
X526667Y184110D01*
X526656Y184228D01*
X526653Y184347D01*
X526641Y184386D01*
X526638Y184426D01*
X526597Y184538D01*
X526564Y184653D01*
X526544Y184688D01*
X526530Y184726D01*
X526463Y184824D01*
X526403Y184927D01*
X526363Y184972D01*
X526351Y184989D01*
X526336Y185002D01*
X526296Y185048D01*
X525275Y186068D01*
X525275Y194932D01*
X526296Y195953D01*
X526369Y196047D01*
X526448Y196136D01*
X526466Y196172D01*
X526491Y196204D01*
X526539Y196313D01*
X526593Y196419D01*
X526601Y196458D01*
X526617Y196496D01*
X526636Y196613D01*
X526662Y196729D01*
X526661Y196770D01*
X526667Y196810D01*
X526656Y196928D01*
X526653Y197047D01*
X526641Y197086D01*
X526638Y197126D01*
X526597Y197238D01*
X526564Y197353D01*
X526544Y197388D01*
X526530Y197426D01*
X526463Y197524D01*
X526403Y197627D01*
X526363Y197672D01*
X526351Y197689D01*
X526336Y197702D01*
X526296Y197748D01*
X525275Y198768D01*
X525275Y206506D01*
X525260Y206624D01*
X525253Y206743D01*
X525240Y206781D01*
X525235Y206822D01*
X525192Y206932D01*
X525155Y207045D01*
X525133Y207080D01*
X525118Y207117D01*
X525049Y207213D01*
X524985Y207314D01*
X524955Y207342D01*
X524932Y207375D01*
X524840Y207451D01*
X524753Y207532D01*
X524718Y207552D01*
X524687Y207577D01*
X524579Y207628D01*
X524475Y207686D01*
X524435Y207696D01*
X524399Y207713D01*
X524282Y207735D01*
X524167Y207765D01*
X524107Y207769D01*
X524087Y207773D01*
X524066Y207771D01*
X524006Y207775D01*
X516268Y207775D01*
X515247Y208796D01*
X515153Y208869D01*
X515064Y208948D01*
X515028Y208966D01*
X514996Y208991D01*
X514887Y209039D01*
X514781Y209093D01*
X514742Y209101D01*
X514704Y209117D01*
X514587Y209136D01*
X514471Y209162D01*
X514430Y209161D01*
X514390Y209167D01*
X514272Y209156D01*
X514153Y209153D01*
X514114Y209141D01*
X514074Y209138D01*
X513962Y209097D01*
X513847Y209064D01*
X513812Y209044D01*
X513774Y209030D01*
X513676Y208963D01*
X513573Y208903D01*
X513528Y208863D01*
X513511Y208851D01*
X513498Y208836D01*
X513452Y208796D01*
X512432Y207775D01*
X503568Y207775D01*
X502547Y208796D01*
X502453Y208869D01*
X502364Y208948D01*
X502328Y208966D01*
X502296Y208991D01*
X502187Y209039D01*
X502081Y209093D01*
X502042Y209101D01*
X502004Y209117D01*
X501887Y209136D01*
X501771Y209162D01*
X501730Y209161D01*
X501690Y209167D01*
X501572Y209156D01*
X501453Y209153D01*
X501414Y209141D01*
X501374Y209138D01*
X501262Y209097D01*
X501147Y209064D01*
X501112Y209044D01*
X501074Y209030D01*
X500976Y208963D01*
X500873Y208903D01*
X500828Y208863D01*
X500811Y208851D01*
X500798Y208836D01*
X500752Y208796D01*
X499732Y207775D01*
X490868Y207775D01*
X489847Y208796D01*
X489753Y208869D01*
X489664Y208948D01*
X489628Y208966D01*
X489596Y208991D01*
X489487Y209039D01*
X489381Y209093D01*
X489342Y209101D01*
X489304Y209117D01*
X489187Y209136D01*
X489071Y209162D01*
X489030Y209161D01*
X488990Y209167D01*
X488872Y209156D01*
X488753Y209153D01*
X488714Y209141D01*
X488674Y209138D01*
X488562Y209097D01*
X488447Y209064D01*
X488412Y209044D01*
X488374Y209030D01*
X488276Y208963D01*
X488173Y208903D01*
X488128Y208863D01*
X488111Y208851D01*
X488098Y208836D01*
X488052Y208796D01*
X487032Y207775D01*
X478168Y207775D01*
X477147Y208796D01*
X477053Y208869D01*
X476964Y208948D01*
X476928Y208966D01*
X476896Y208991D01*
X476787Y209039D01*
X476681Y209093D01*
X476642Y209101D01*
X476604Y209117D01*
X476487Y209136D01*
X476371Y209162D01*
X476330Y209161D01*
X476290Y209167D01*
X476172Y209156D01*
X476053Y209153D01*
X476014Y209141D01*
X475974Y209138D01*
X475862Y209097D01*
X475747Y209064D01*
X475712Y209044D01*
X475674Y209030D01*
X475576Y208963D01*
X475473Y208903D01*
X475428Y208863D01*
X475411Y208851D01*
X475398Y208836D01*
X475352Y208796D01*
X474332Y207775D01*
X466594Y207775D01*
X466476Y207760D01*
X466357Y207753D01*
X466319Y207740D01*
X466278Y207735D01*
X466168Y207692D01*
X466055Y207655D01*
X466020Y207633D01*
X465983Y207618D01*
X465887Y207549D01*
X465786Y207485D01*
X465758Y207455D01*
X465725Y207432D01*
X465649Y207340D01*
X465568Y207253D01*
X465548Y207218D01*
X465523Y207187D01*
X465472Y207079D01*
X465414Y206975D01*
X465404Y206935D01*
X465387Y206899D01*
X465365Y206782D01*
X465335Y206667D01*
X465331Y206607D01*
X465327Y206587D01*
X465329Y206566D01*
X465325Y206506D01*
X465325Y198768D01*
X464304Y197747D01*
X464231Y197653D01*
X464152Y197564D01*
X464134Y197528D01*
X464109Y197496D01*
X464061Y197387D01*
X464007Y197281D01*
X463999Y197242D01*
X463983Y197204D01*
X463964Y197087D01*
X463938Y196971D01*
X463939Y196930D01*
X463933Y196890D01*
X463944Y196772D01*
X463947Y196653D01*
X463959Y196614D01*
X463962Y196574D01*
X464003Y196462D01*
X464036Y196347D01*
X464056Y196312D01*
X464070Y196274D01*
X464137Y196176D01*
X464197Y196073D01*
X464237Y196028D01*
X464249Y196011D01*
X464264Y195998D01*
X464304Y195952D01*
X465325Y194932D01*
X465325Y186068D01*
X464304Y185047D01*
X464231Y184953D01*
X464152Y184864D01*
X464134Y184828D01*
X464109Y184796D01*
X464061Y184687D01*
X464007Y184581D01*
X463999Y184542D01*
X463983Y184504D01*
X463964Y184387D01*
X463938Y184271D01*
X463939Y184230D01*
X463933Y184190D01*
X463944Y184072D01*
X463947Y183953D01*
X463959Y183914D01*
X463962Y183874D01*
X464003Y183762D01*
X464036Y183647D01*
X464056Y183612D01*
X464070Y183574D01*
X464137Y183476D01*
X464197Y183373D01*
X464237Y183328D01*
X464249Y183311D01*
X464264Y183298D01*
X464304Y183252D01*
X465325Y182232D01*
X465325Y173368D01*
X464304Y172347D01*
X464231Y172253D01*
X464152Y172164D01*
X464134Y172128D01*
X464109Y172096D01*
X464061Y171987D01*
X464007Y171881D01*
X463999Y171842D01*
X463983Y171804D01*
X463964Y171687D01*
X463938Y171571D01*
X463939Y171530D01*
X463933Y171490D01*
X463944Y171372D01*
X463947Y171253D01*
X463959Y171214D01*
X463962Y171174D01*
X464003Y171062D01*
X464036Y170947D01*
X464056Y170912D01*
X464070Y170874D01*
X464137Y170776D01*
X464197Y170673D01*
X464237Y170628D01*
X464249Y170611D01*
X464264Y170598D01*
X464304Y170552D01*
X465325Y169532D01*
X465325Y160668D01*
X464304Y159647D01*
X464231Y159553D01*
X464152Y159464D01*
X464134Y159428D01*
X464109Y159396D01*
X464061Y159287D01*
X464007Y159181D01*
X463999Y159142D01*
X463983Y159104D01*
X463964Y158987D01*
X463938Y158871D01*
X463939Y158830D01*
X463933Y158790D01*
X463944Y158672D01*
X463947Y158553D01*
X463959Y158514D01*
X463962Y158474D01*
X464003Y158362D01*
X464036Y158247D01*
X464056Y158212D01*
X464070Y158174D01*
X464137Y158076D01*
X464197Y157973D01*
X464237Y157928D01*
X464249Y157911D01*
X464264Y157898D01*
X464304Y157852D01*
X465325Y156832D01*
X465325Y149094D01*
X465340Y148976D01*
X465347Y148857D01*
X465360Y148819D01*
X465365Y148778D01*
X465408Y148668D01*
X465445Y148555D01*
X465467Y148520D01*
X465482Y148483D01*
X465551Y148387D01*
X465615Y148286D01*
X465645Y148258D01*
X465668Y148225D01*
X465760Y148149D01*
X465847Y148068D01*
X465882Y148048D01*
X465913Y148023D01*
X466021Y147972D01*
X466125Y147914D01*
X466165Y147904D01*
X466201Y147887D01*
X466318Y147865D01*
X466433Y147835D01*
X466493Y147831D01*
X466513Y147827D01*
X466534Y147829D01*
X466594Y147825D01*
X474332Y147825D01*
X475352Y146804D01*
X475447Y146731D01*
X475536Y146652D01*
X475572Y146634D01*
X475604Y146609D01*
X475713Y146562D01*
X475819Y146507D01*
X475858Y146499D01*
X475896Y146483D01*
X476013Y146464D01*
X476129Y146438D01*
X476170Y146439D01*
X476210Y146433D01*
X476328Y146444D01*
X476447Y146447D01*
X476486Y146459D01*
X476526Y146462D01*
X476639Y146503D01*
X476753Y146536D01*
X476787Y146556D01*
X476826Y146570D01*
X476924Y146637D01*
X477027Y146697D01*
X477072Y146737D01*
X477089Y146749D01*
X477102Y146764D01*
X477147Y146804D01*
X478168Y147825D01*
X487032Y147825D01*
X488052Y146804D01*
X488147Y146731D01*
X488236Y146652D01*
X488272Y146634D01*
X488304Y146609D01*
X488413Y146562D01*
X488519Y146507D01*
X488558Y146499D01*
X488596Y146483D01*
X488713Y146464D01*
X488829Y146438D01*
X488870Y146439D01*
X488910Y146433D01*
X489028Y146444D01*
X489147Y146447D01*
X489186Y146459D01*
X489226Y146462D01*
X489339Y146503D01*
X489453Y146536D01*
X489487Y146556D01*
X489526Y146570D01*
X489624Y146637D01*
X489727Y146697D01*
X489772Y146737D01*
X489789Y146749D01*
X489802Y146764D01*
X489847Y146804D01*
X490868Y147825D01*
X499732Y147825D01*
X500752Y146804D01*
X500847Y146731D01*
X500936Y146652D01*
X500972Y146634D01*
X501004Y146609D01*
X501113Y146562D01*
X501219Y146507D01*
X501258Y146499D01*
X501296Y146483D01*
X501413Y146464D01*
X501529Y146438D01*
X501570Y146439D01*
X501610Y146433D01*
X501728Y146444D01*
X501847Y146447D01*
X501886Y146459D01*
X501926Y146462D01*
X502039Y146503D01*
X502153Y146536D01*
X502187Y146556D01*
X502226Y146570D01*
X502324Y146637D01*
X502427Y146697D01*
X502472Y146737D01*
X502489Y146749D01*
X502502Y146764D01*
X502547Y146804D01*
X503568Y147825D01*
X512432Y147825D01*
X513452Y146804D01*
X513547Y146731D01*
X513636Y146652D01*
X513672Y146634D01*
X513704Y146609D01*
X513813Y146562D01*
X513919Y146507D01*
X513958Y146499D01*
X513996Y146483D01*
X514113Y146464D01*
X514229Y146438D01*
X514270Y146439D01*
X514310Y146433D01*
X514428Y146444D01*
G37*
%LPC*%
G36*
X392402Y82375D02*
X392402Y82375D01*
X390004Y83369D01*
X388169Y85204D01*
X387175Y87602D01*
X387175Y90198D01*
X388169Y92596D01*
X390004Y94431D01*
X392402Y95425D01*
X394998Y95425D01*
X397396Y94431D01*
X399231Y92596D01*
X399280Y92478D01*
X399295Y92453D01*
X399304Y92425D01*
X399373Y92315D01*
X399438Y92202D01*
X399458Y92181D01*
X399474Y92156D01*
X399569Y92067D01*
X399659Y91974D01*
X399684Y91958D01*
X399706Y91938D01*
X399819Y91875D01*
X399930Y91807D01*
X399958Y91799D01*
X399984Y91784D01*
X400110Y91752D01*
X400234Y91714D01*
X400264Y91712D01*
X400292Y91705D01*
X400453Y91695D01*
X404717Y91695D01*
X404815Y91707D01*
X404914Y91710D01*
X404972Y91727D01*
X405032Y91735D01*
X405124Y91771D01*
X405219Y91799D01*
X405272Y91829D01*
X405328Y91852D01*
X405408Y91910D01*
X405493Y91960D01*
X405569Y92026D01*
X405585Y92038D01*
X405593Y92048D01*
X405614Y92066D01*
X415934Y102386D01*
X415994Y102464D01*
X416062Y102536D01*
X416091Y102589D01*
X416128Y102637D01*
X416168Y102728D01*
X416216Y102815D01*
X416231Y102873D01*
X416255Y102929D01*
X416270Y103027D01*
X416295Y103123D01*
X416301Y103223D01*
X416305Y103243D01*
X416303Y103255D01*
X416305Y103283D01*
X416305Y110206D01*
X416290Y110324D01*
X416283Y110443D01*
X416270Y110481D01*
X416265Y110522D01*
X416222Y110632D01*
X416185Y110745D01*
X416163Y110780D01*
X416148Y110817D01*
X416079Y110913D01*
X416015Y111014D01*
X415985Y111042D01*
X415962Y111075D01*
X415870Y111151D01*
X415783Y111232D01*
X415748Y111252D01*
X415717Y111277D01*
X415609Y111328D01*
X415505Y111386D01*
X415465Y111396D01*
X415429Y111413D01*
X415312Y111435D01*
X415197Y111465D01*
X415137Y111469D01*
X415117Y111473D01*
X415096Y111471D01*
X415036Y111475D01*
X413068Y111475D01*
X412175Y112368D01*
X412175Y124132D01*
X413068Y125025D01*
X425132Y125025D01*
X426025Y124132D01*
X426025Y112368D01*
X425132Y111475D01*
X423164Y111475D01*
X423046Y111460D01*
X422927Y111453D01*
X422889Y111440D01*
X422848Y111435D01*
X422738Y111392D01*
X422625Y111355D01*
X422590Y111333D01*
X422553Y111318D01*
X422457Y111249D01*
X422356Y111185D01*
X422328Y111155D01*
X422295Y111132D01*
X422219Y111040D01*
X422138Y110953D01*
X422118Y110918D01*
X422093Y110887D01*
X422042Y110779D01*
X421984Y110675D01*
X421974Y110635D01*
X421957Y110599D01*
X421935Y110482D01*
X421905Y110367D01*
X421901Y110307D01*
X421897Y110287D01*
X421899Y110266D01*
X421895Y110206D01*
X421895Y100442D01*
X407558Y86105D01*
X400453Y86105D01*
X400424Y86102D01*
X400394Y86104D01*
X400266Y86082D01*
X400137Y86065D01*
X400110Y86055D01*
X400081Y86050D01*
X399962Y85996D01*
X399842Y85948D01*
X399818Y85931D01*
X399791Y85919D01*
X399689Y85838D01*
X399584Y85762D01*
X399565Y85739D01*
X399542Y85720D01*
X399464Y85617D01*
X399381Y85517D01*
X399369Y85490D01*
X399351Y85466D01*
X399280Y85322D01*
X399231Y85204D01*
X397396Y83369D01*
X394998Y82375D01*
X392402Y82375D01*
G37*
%LPD*%
%LPC*%
G36*
X413068Y217875D02*
X413068Y217875D01*
X412175Y218768D01*
X412175Y230532D01*
X413068Y231425D01*
X415036Y231425D01*
X415154Y231440D01*
X415273Y231447D01*
X415311Y231460D01*
X415352Y231465D01*
X415462Y231508D01*
X415575Y231545D01*
X415610Y231567D01*
X415647Y231582D01*
X415743Y231651D01*
X415844Y231715D01*
X415872Y231745D01*
X415905Y231768D01*
X415981Y231860D01*
X416062Y231947D01*
X416082Y231982D01*
X416107Y232013D01*
X416158Y232121D01*
X416216Y232225D01*
X416226Y232265D01*
X416243Y232301D01*
X416265Y232418D01*
X416295Y232533D01*
X416299Y232593D01*
X416303Y232613D01*
X416301Y232634D01*
X416305Y232694D01*
X416305Y242458D01*
X418314Y244466D01*
X425049Y251201D01*
X425067Y251224D01*
X425089Y251244D01*
X425164Y251350D01*
X425244Y251452D01*
X425256Y251480D01*
X425273Y251504D01*
X425319Y251625D01*
X425370Y251744D01*
X425375Y251773D01*
X425385Y251801D01*
X425400Y251930D01*
X425420Y252058D01*
X425417Y252088D01*
X425421Y252117D01*
X425402Y252246D01*
X425390Y252375D01*
X425380Y252403D01*
X425376Y252432D01*
X425324Y252584D01*
X425275Y252702D01*
X425275Y255298D01*
X426269Y257696D01*
X428104Y259531D01*
X430502Y260525D01*
X433098Y260525D01*
X435496Y259531D01*
X437331Y257696D01*
X438325Y255298D01*
X438325Y252702D01*
X437331Y250304D01*
X435496Y248469D01*
X433098Y247475D01*
X430502Y247475D01*
X430384Y247524D01*
X430356Y247532D01*
X430330Y247545D01*
X430203Y247574D01*
X430078Y247608D01*
X430048Y247608D01*
X430019Y247615D01*
X429890Y247611D01*
X429760Y247613D01*
X429731Y247606D01*
X429701Y247605D01*
X429577Y247569D01*
X429450Y247539D01*
X429424Y247525D01*
X429396Y247517D01*
X429284Y247451D01*
X429169Y247390D01*
X429148Y247370D01*
X429122Y247355D01*
X429001Y247249D01*
X422266Y240514D01*
X422206Y240436D01*
X422138Y240364D01*
X422109Y240311D01*
X422072Y240263D01*
X422032Y240172D01*
X421984Y240085D01*
X421969Y240027D01*
X421945Y239971D01*
X421930Y239873D01*
X421905Y239777D01*
X421899Y239677D01*
X421895Y239657D01*
X421897Y239645D01*
X421895Y239617D01*
X421895Y232694D01*
X421910Y232576D01*
X421917Y232457D01*
X421930Y232419D01*
X421935Y232378D01*
X421978Y232268D01*
X422015Y232155D01*
X422037Y232120D01*
X422052Y232083D01*
X422121Y231987D01*
X422185Y231886D01*
X422215Y231858D01*
X422238Y231825D01*
X422330Y231749D01*
X422417Y231668D01*
X422452Y231648D01*
X422483Y231623D01*
X422591Y231572D01*
X422695Y231514D01*
X422735Y231504D01*
X422771Y231487D01*
X422888Y231465D01*
X423003Y231435D01*
X423063Y231431D01*
X423083Y231427D01*
X423104Y231429D01*
X423164Y231425D01*
X425132Y231425D01*
X426025Y230532D01*
X426025Y218768D01*
X425132Y217875D01*
X413068Y217875D01*
G37*
%LPD*%
%LPC*%
G36*
X391768Y158175D02*
X391768Y158175D01*
X390875Y159068D01*
X390875Y161036D01*
X390860Y161154D01*
X390853Y161273D01*
X390840Y161311D01*
X390835Y161352D01*
X390792Y161462D01*
X390755Y161575D01*
X390733Y161610D01*
X390718Y161647D01*
X390649Y161743D01*
X390585Y161844D01*
X390555Y161872D01*
X390532Y161905D01*
X390440Y161981D01*
X390353Y162062D01*
X390318Y162082D01*
X390287Y162107D01*
X390179Y162158D01*
X390075Y162216D01*
X390035Y162226D01*
X389999Y162243D01*
X389882Y162265D01*
X389767Y162295D01*
X389707Y162299D01*
X389687Y162303D01*
X389666Y162301D01*
X389606Y162305D01*
X375053Y162305D01*
X375024Y162302D01*
X374994Y162304D01*
X374866Y162282D01*
X374737Y162265D01*
X374710Y162255D01*
X374681Y162250D01*
X374562Y162196D01*
X374442Y162148D01*
X374418Y162131D01*
X374391Y162119D01*
X374289Y162038D01*
X374184Y161962D01*
X374165Y161939D01*
X374142Y161920D01*
X374064Y161817D01*
X373981Y161717D01*
X373969Y161690D01*
X373951Y161666D01*
X373880Y161522D01*
X373831Y161404D01*
X371996Y159569D01*
X369598Y158575D01*
X367002Y158575D01*
X364604Y159569D01*
X362769Y161404D01*
X361775Y163802D01*
X361775Y166398D01*
X362769Y168796D01*
X364604Y170631D01*
X367002Y171625D01*
X369598Y171625D01*
X371996Y170631D01*
X373831Y168796D01*
X373880Y168678D01*
X373895Y168653D01*
X373904Y168625D01*
X373973Y168515D01*
X374038Y168402D01*
X374058Y168381D01*
X374074Y168356D01*
X374169Y168267D01*
X374259Y168174D01*
X374284Y168158D01*
X374306Y168138D01*
X374419Y168075D01*
X374530Y168007D01*
X374558Y167999D01*
X374584Y167984D01*
X374710Y167952D01*
X374834Y167914D01*
X374864Y167912D01*
X374892Y167905D01*
X375053Y167895D01*
X389606Y167895D01*
X389724Y167910D01*
X389843Y167917D01*
X389881Y167930D01*
X389922Y167935D01*
X390032Y167978D01*
X390145Y168015D01*
X390180Y168037D01*
X390217Y168052D01*
X390313Y168121D01*
X390414Y168185D01*
X390442Y168215D01*
X390475Y168238D01*
X390551Y168330D01*
X390632Y168417D01*
X390652Y168452D01*
X390677Y168483D01*
X390728Y168591D01*
X390786Y168695D01*
X390796Y168735D01*
X390813Y168771D01*
X390835Y168888D01*
X390865Y169003D01*
X390869Y169063D01*
X390873Y169083D01*
X390871Y169104D01*
X390875Y169164D01*
X390875Y171132D01*
X391768Y172025D01*
X403532Y172025D01*
X404425Y171132D01*
X404425Y159068D01*
X403532Y158175D01*
X391768Y158175D01*
G37*
%LPD*%
%LPC*%
G36*
X544802Y69675D02*
X544802Y69675D01*
X542404Y70669D01*
X540569Y72504D01*
X539575Y74902D01*
X539575Y77498D01*
X539624Y77616D01*
X539632Y77644D01*
X539645Y77670D01*
X539674Y77797D01*
X539708Y77922D01*
X539708Y77952D01*
X539715Y77981D01*
X539711Y78110D01*
X539713Y78240D01*
X539706Y78269D01*
X539705Y78299D01*
X539669Y78423D01*
X539639Y78550D01*
X539625Y78576D01*
X539617Y78604D01*
X539551Y78716D01*
X539490Y78831D01*
X539470Y78853D01*
X539455Y78878D01*
X539355Y78992D01*
X539355Y93406D01*
X539340Y93524D01*
X539333Y93643D01*
X539320Y93681D01*
X539315Y93722D01*
X539272Y93832D01*
X539235Y93945D01*
X539213Y93980D01*
X539198Y94017D01*
X539129Y94113D01*
X539065Y94214D01*
X539035Y94242D01*
X539012Y94275D01*
X538920Y94351D01*
X538833Y94432D01*
X538798Y94452D01*
X538767Y94477D01*
X538659Y94528D01*
X538555Y94586D01*
X538515Y94596D01*
X538479Y94613D01*
X538362Y94635D01*
X538247Y94665D01*
X538187Y94669D01*
X538167Y94673D01*
X538146Y94671D01*
X538086Y94675D01*
X536268Y94675D01*
X535375Y95568D01*
X535375Y107632D01*
X536268Y108525D01*
X548032Y108525D01*
X548925Y107632D01*
X548925Y95568D01*
X548032Y94675D01*
X546214Y94675D01*
X546096Y94660D01*
X545977Y94653D01*
X545939Y94640D01*
X545898Y94635D01*
X545788Y94592D01*
X545675Y94555D01*
X545640Y94533D01*
X545603Y94518D01*
X545507Y94449D01*
X545406Y94385D01*
X545378Y94355D01*
X545345Y94332D01*
X545269Y94240D01*
X545188Y94153D01*
X545168Y94118D01*
X545143Y94087D01*
X545092Y93979D01*
X545034Y93875D01*
X545024Y93835D01*
X545007Y93799D01*
X544985Y93682D01*
X544955Y93567D01*
X544951Y93507D01*
X544947Y93487D01*
X544949Y93466D01*
X544945Y93406D01*
X544945Y83994D01*
X544960Y83876D01*
X544967Y83757D01*
X544980Y83719D01*
X544985Y83678D01*
X545028Y83568D01*
X545065Y83455D01*
X545087Y83420D01*
X545102Y83383D01*
X545171Y83287D01*
X545235Y83186D01*
X545265Y83158D01*
X545288Y83125D01*
X545380Y83049D01*
X545467Y82968D01*
X545502Y82948D01*
X545533Y82923D01*
X545641Y82872D01*
X545745Y82814D01*
X545785Y82804D01*
X545821Y82787D01*
X545938Y82765D01*
X546053Y82735D01*
X546113Y82731D01*
X546133Y82727D01*
X546154Y82729D01*
X546214Y82725D01*
X547398Y82725D01*
X549796Y81731D01*
X551631Y79896D01*
X552625Y77498D01*
X552625Y74902D01*
X551631Y72504D01*
X549796Y70669D01*
X547398Y69675D01*
X544802Y69675D01*
G37*
%LPD*%
D10*
X50800Y50800D02*
X660400Y50800D01*
D11*
X50800Y50800D02*
X43360Y50800D01*
X42312Y50813D01*
X41265Y50851D01*
X40219Y50914D01*
X39175Y51002D01*
X38134Y51116D01*
X37095Y51255D01*
X36060Y51419D01*
X35029Y51608D01*
X34004Y51822D01*
X32983Y52060D01*
X31969Y52323D01*
X30961Y52610D01*
X29961Y52922D01*
X28968Y53258D01*
X27984Y53618D01*
X27009Y54001D01*
X26044Y54408D01*
X25088Y54838D01*
X24143Y55291D01*
X23210Y55767D01*
X22288Y56265D01*
X21378Y56785D01*
X20482Y57327D01*
X19598Y57891D01*
X18729Y58475D01*
X17874Y59081D01*
X17033Y59707D01*
X16209Y60353D01*
X15400Y61019D01*
X14607Y61705D01*
X13831Y62409D01*
X13073Y63132D01*
X12332Y63873D01*
X11609Y64631D01*
X10905Y65407D01*
X10219Y66200D01*
X9553Y67009D01*
X8907Y67833D01*
X8281Y68674D01*
X7675Y69529D01*
X7091Y70398D01*
X6527Y71282D01*
X5985Y72178D01*
X5465Y73088D01*
X4967Y74010D01*
X4491Y74943D01*
X4038Y75888D01*
X3608Y76844D01*
X3201Y77809D01*
X2818Y78784D01*
X2458Y79768D01*
X2122Y80761D01*
X1810Y81761D01*
X1523Y82769D01*
X1260Y83783D01*
X1022Y84804D01*
X808Y85829D01*
X619Y86860D01*
X455Y87895D01*
X316Y88934D01*
X202Y89975D01*
X114Y91019D01*
X51Y92065D01*
X13Y93112D01*
X0Y94160D01*
X0Y317500D01*
X660400Y274140D02*
X660400Y50800D01*
X660400Y274140D02*
X660387Y275188D01*
X660349Y276235D01*
X660286Y277281D01*
X660198Y278325D01*
X660084Y279366D01*
X659945Y280405D01*
X659781Y281440D01*
X659592Y282471D01*
X659378Y283496D01*
X659140Y284517D01*
X658877Y285531D01*
X658590Y286539D01*
X658278Y287539D01*
X657942Y288532D01*
X657582Y289516D01*
X657199Y290491D01*
X656792Y291456D01*
X656362Y292412D01*
X655909Y293357D01*
X655433Y294290D01*
X654935Y295212D01*
X654415Y296122D01*
X653873Y297018D01*
X653309Y297902D01*
X652725Y298771D01*
X652119Y299626D01*
X651493Y300467D01*
X650847Y301291D01*
X650181Y302100D01*
X649495Y302893D01*
X648791Y303669D01*
X648068Y304427D01*
X647327Y305168D01*
X646569Y305891D01*
X645793Y306595D01*
X645000Y307281D01*
X644191Y307947D01*
X643367Y308593D01*
X642526Y309219D01*
X641671Y309825D01*
X640802Y310409D01*
X639918Y310973D01*
X639022Y311515D01*
X638112Y312035D01*
X637190Y312533D01*
X636257Y313009D01*
X635312Y313462D01*
X634356Y313892D01*
X633391Y314299D01*
X632416Y314682D01*
X631432Y315042D01*
X630439Y315378D01*
X629439Y315690D01*
X628431Y315977D01*
X627417Y316240D01*
X626396Y316478D01*
X625371Y316692D01*
X624340Y316881D01*
X623305Y317045D01*
X622266Y317184D01*
X621225Y317298D01*
X620181Y317386D01*
X619135Y317449D01*
X618088Y317487D01*
X617040Y317500D01*
X0Y317500D01*
D12*
X431800Y254000D03*
X406400Y190500D03*
X368300Y165100D03*
X393700Y88900D03*
X457200Y101600D03*
X495300Y114300D03*
X546100Y76200D03*
X546100Y127000D03*
X596900Y114300D03*
X609600Y203200D03*
X622300Y228600D03*
X571500Y241300D03*
X558800Y292100D03*
X495300Y266700D03*
X457200Y292100D03*
X482600Y241300D03*
X609600Y177800D03*
D13*
X469900Y137300D03*
X482600Y137300D03*
X495300Y137300D03*
X508000Y137300D03*
X520700Y137300D03*
X469900Y218300D03*
X482600Y218300D03*
X495300Y218300D03*
X508000Y218300D03*
X520700Y218300D03*
D14*
X535800Y203200D03*
X535800Y190500D03*
X535800Y177800D03*
X535800Y165100D03*
X535800Y152400D03*
X454800Y152400D03*
X454800Y165100D03*
X454800Y177800D03*
X454800Y190500D03*
X454800Y203200D03*
D15*
X419100Y224650D03*
X419100Y207150D03*
D16*
X397650Y165100D03*
X415150Y165100D03*
D15*
X419100Y118250D03*
X419100Y135750D03*
D16*
X562750Y177800D03*
X580250Y177800D03*
X562750Y191770D03*
X580250Y191770D03*
X542150Y101600D03*
X524650Y101600D03*
D17*
X419100Y241300D02*
X431800Y254000D01*
X419100Y241300D02*
X419100Y224650D01*
X419100Y207150D02*
X435750Y190500D01*
X454800Y190500D01*
X454800Y177800D02*
X419100Y177800D01*
X406400Y190500D01*
X397650Y165100D02*
X368300Y165100D01*
X415150Y165100D02*
X454800Y165100D01*
X435750Y152400D02*
X419100Y135750D01*
X435750Y152400D02*
X454800Y152400D01*
X419100Y118250D02*
X419100Y101600D01*
X406400Y88900D01*
X393700Y88900D01*
X482600Y114300D02*
X482600Y137300D01*
X482600Y114300D02*
X469900Y101600D01*
X457200Y101600D01*
X524510Y101740D02*
X524650Y101600D01*
X520700Y127000D02*
X520700Y137300D01*
X520700Y127000D02*
X527050Y120650D01*
X527050Y104000D01*
X524650Y101600D01*
X542150Y80150D02*
X546100Y76200D01*
X542150Y80150D02*
X542150Y101600D01*
X495300Y114300D02*
X495300Y137300D01*
X535800Y137300D02*
X535800Y152400D01*
X535800Y137300D02*
X546100Y127000D01*
X535800Y165100D02*
X558800Y165100D01*
X596900Y127000D01*
X596900Y114300D01*
X561480Y190500D02*
X535800Y190500D01*
X561480Y190500D02*
X562750Y191770D01*
X580250Y191770D02*
X598170Y191770D01*
X609600Y203200D01*
X596900Y203200D02*
X535800Y203200D01*
X596900Y203200D02*
X622300Y228600D01*
X548500Y218300D02*
X520700Y218300D01*
X548500Y218300D02*
X571500Y241300D01*
X508000Y228600D02*
X508000Y218300D01*
X508000Y228600D02*
X558800Y279400D01*
X558800Y292100D01*
X495300Y266700D02*
X495300Y218300D01*
X482600Y218300D02*
X482600Y241300D01*
X469900Y218300D02*
X469900Y279400D01*
X457200Y292100D01*
X535800Y177800D02*
X562750Y177800D01*
X580250Y177800D02*
X609600Y177800D01*
D18*
X495300Y177800D03*
X101600Y238125D03*
M02*
